<svg width="369" height="171" viewBox="0 0 369 171" fill="none" xmlns="http://www.w3.org/2000/svg">
<g clip-path="url(#clip0_1_458)">
<path d="M109.169 2.40018C99.7022 -0.957297 89.0101 -1.26715 66.4095 4.53675C50.5332 8.61104 36.0998 12.4032 28.4923 14.6554C25.2689 15.6127 25.6574 15.5711 22.9104 16.1815C21.7172 16.4452 21.6895 16.4868 21.6895 17.7077C21.6895 19.2338 22.2999 32.9782 22.2999 34.8095C22.2999 36.6409 22.6236 36.0582 24.7417 35.42C26.0505 35.0269 71.2978 23.1601 84.4317 19.8026C97.5656 16.4452 107.213 23.2017 109.044 32.673C110.875 42.1395 107.953 46.0705 101.103 52.5265C94.2544 58.9824 77.7121 65.3551 65.1933 69.5867C65.9055 67.6536 67.9403 62.4416 70.3867 57.0632C73.439 50.3436 76.7918 42.6991 77.7167 41.1823C78.8082 39.3925 78.2948 39.4896 76.3664 39.3925C70.3867 39.0873 59.875 38.4768 56.6423 37.8248C55.4769 37.5889 55.7174 37.5612 54.9867 39.3925C52.5449 45.5016 27.8032 95.2857 26.8875 96.8118C25.9719 98.3379 26.6655 97.7136 27.498 98.3379C28.5894 99.1565 47.9619 110.251 61.7063 120.328C72.7037 128.393 85.0468 137.962 86.2677 139.224C87.4886 140.487 88.099 142.475 88.099 148.427V167.018C88.099 169.418 88.2193 170.991 89.9304 170.991C92.0669 170.991 90.846 164.923 90.846 159.73V147.512C90.846 143.89 91.3779 140.256 93.4636 137.129C94.074 136.214 103.975 121.512 106.117 119.986C108.253 118.46 106.829 118.011 105.201 116.934C91.4565 107.814 79.7238 101.094 67.6351 92.497C72.3938 91.3178 88.9268 86.0734 97.7414 81.8835C110.057 76.0288 124.324 66.2431 129.637 49.7378C138.188 23.1647 118.64 5.75765 109.173 2.39555L109.169 2.40018Z" fill="white"/>
<path d="M232.128 125.836C233.853 126.756 235.92 126.1 235.92 124.573C235.92 122.182 234.2 121.091 235.143 116.675L242.335 83.0351C246.104 88.0251 254.414 99.7623 255.644 101.404C256.56 102.625 256.56 103.235 258.391 103.235C260.223 103.235 275.211 104.392 278.55 104.762C281.297 105.067 280.479 104.664 281.297 102.625C282.999 98.3888 290.385 78.5585 293.95 68.375C296.091 79.5944 305.22 132.819 308.481 152.409C309.091 156.076 309.544 155.951 311.838 156.34C314.132 156.728 333.172 158.782 335.308 158.782C337.445 158.782 337.445 158.782 337.14 156.34C336.834 153.898 309.521 26.5315 308.911 24.7001C308.3 22.8688 308.3 21.9531 306.469 21.6479C305.119 21.4213 292.595 18.6372 290.764 18.0222C289.025 17.4441 288.146 17.3701 286.921 20.1171C285.945 22.3184 272.668 56.6655 266.152 73.5685L249.05 47.9111C246.608 44.2438 247.524 43.0229 243.856 43.3281C240.189 43.6333 226.445 45.1594 224.613 45.7699C222.782 46.3803 223.503 47.0648 222.782 50.0477C221.737 54.3671 209.343 111.745 208.122 114.797C206.901 117.849 207.849 118.02 209.343 118.46C212.575 119.417 225.885 122.515 232.119 125.831L232.128 125.836Z" fill="white"/>
<path d="M337.149 156.34C337.019 155.299 331.988 131.58 326.202 104.558C325.795 104.752 325.37 104.919 324.931 105.034C323.534 105.395 322.16 105.825 320.815 106.343C320.81 106.362 319.538 106.903 319.358 106.991C318.618 107.347 317.887 107.721 317.166 108.11C315.732 108.882 314.331 109.719 312.957 110.598C312.291 111.028 311.63 111.472 310.978 111.925C310.895 111.985 310.354 112.378 310.016 112.619C309.762 112.864 309.073 113.484 308.957 113.599C308.809 113.752 308.675 113.914 308.532 114.076C307.935 115.162 307.232 116.175 306.668 117.29C305.586 119.44 304.679 121.674 303.639 123.843C305.59 135.266 307.371 145.773 308.476 152.414C309.087 156.081 309.54 155.956 311.834 156.345C314.127 156.733 333.167 158.786 335.304 158.786C337.44 158.786 337.44 158.786 337.135 156.345L337.149 156.34Z" fill="#46FFFF"/>
<path d="M232.128 125.836C233.853 126.756 235.92 126.1 235.92 124.573C235.92 122.182 234.2 121.091 235.143 116.675L242.335 83.0351C246.104 88.0251 254.414 99.7623 255.644 101.404C256.56 102.625 256.56 103.235 258.391 103.235C260.223 103.235 275.211 104.392 278.55 104.762C281.297 105.067 280.479 104.664 281.297 102.625C282.999 98.3888 290.385 78.5585 293.95 68.375C296.091 79.5944 305.22 132.819 308.481 152.409C309.091 156.076 309.544 155.951 311.838 156.34C314.132 156.728 333.172 158.782 335.308 158.782C337.445 158.782 337.445 158.782 337.14 156.34C336.834 153.898 309.521 26.5315 308.911 24.7001C308.3 22.8688 308.3 21.9531 306.469 21.6479C305.119 21.4213 292.595 18.6372 290.764 18.0222C289.025 17.4441 288.146 17.3701 286.921 20.1171C285.945 22.3184 272.668 56.6655 266.152 73.5685L249.05 47.9111C246.608 44.2438 247.524 43.0229 243.856 43.3281C240.189 43.6333 226.445 45.1594 224.613 45.7699C222.782 46.3803 223.503 47.0648 222.782 50.0477C221.737 54.3671 209.343 111.745 208.122 114.797C206.901 117.849 207.849 118.02 209.343 118.46C212.575 119.417 225.885 122.515 232.119 125.831L232.128 125.836Z" fill="url(#paint0_radial_1_458)"/>
<path d="M61.697 120.342C72.6944 128.407 85.0375 137.976 86.2584 139.238C87.4793 140.501 88.0898 142.489 88.0898 148.441V167.032C88.0898 169.432 88.21 171.005 89.9211 171.005C92.0577 171.005 90.8368 164.937 90.8368 159.744V147.525C90.8368 143.904 91.3686 140.269 93.4543 137.143C94.0648 136.227 103.966 121.526 106.107 120C108.244 118.474 106.819 118.025 105.192 116.947C91.4472 107.828 79.7146 101.108 67.6258 92.5109C72.3845 91.3316 88.9176 86.0873 97.7321 81.8974C110.047 76.0426 124.314 66.2569 129.628 49.7517C138.179 23.1786 118.631 5.77152 109.164 2.40943C99.6976 -0.94805 89.0054 -1.2579 66.4049 4.546C50.5286 8.62492 36.0951 12.4125 28.4876 14.6647C25.2643 15.622 25.6527 15.5803 22.9057 16.1908C21.7126 16.4544 21.6848 16.496 21.6848 17.7169C21.6848 19.243 22.2953 32.9874 22.2953 34.8188C22.2953 36.6501 22.619 36.0674 24.7371 35.4292C26.0458 35.0361 71.2931 23.1693 84.4271 19.8119C97.561 16.4544 107.203 23.211 109.039 32.6822C110.871 42.1488 107.948 46.0797 101.099 52.5357C94.2497 58.9917 77.7121 65.3644 65.1886 69.5959C65.9008 67.6628 67.9357 62.4509 70.3821 57.0724C73.4343 50.3529 76.7872 42.7084 77.7121 41.1915C78.8035 39.4018 78.2902 39.4989 76.3617 39.4018C70.3821 39.0965 59.8703 38.4861 56.6377 37.834C55.4723 37.5982 55.7128 37.5704 54.9821 39.4018C52.5403 45.5109 27.7986 95.2949 26.8829 96.8211C25.9672 98.3472 26.6609 97.7275 27.4933 98.3472C28.5848 99.1657 47.9573 110.26 61.7017 120.337L61.697 120.342Z" fill="url(#paint1_radial_1_458)"/>
<path d="M105.196 116.938C91.4519 107.818 79.7192 101.099 67.6305 92.5063C68.9115 92.1872 71.0481 91.5768 73.6564 90.7675C71.8481 87.1556 71.2192 82.7114 70.9556 78.9932C70.8816 77.9388 70.9047 76.889 70.9926 75.8438C70.5116 73.9986 70.211 72.1025 70.0353 70.285C69.9567 69.5034 69.9428 68.7173 69.9752 67.9403C68.3334 68.523 66.7333 69.078 65.1887 69.6006C65.9009 67.6675 67.9357 62.4555 70.3821 57.0771C73.4344 50.3575 76.7872 42.713 77.7121 41.1961C78.8036 39.4064 78.2902 39.5035 76.3618 39.4064C70.3821 39.1012 59.8704 38.4907 56.6377 37.8387C55.4723 37.6028 55.7128 37.5751 54.9821 39.4064C52.5403 45.5155 27.7986 95.2996 26.8829 96.8257C25.9673 98.3518 26.6609 97.7321 27.4934 98.3518C28.5848 99.1704 47.9573 110.265 61.7017 120.342C72.6991 128.407 85.0422 137.976 86.2631 139.238C87.484 140.501 88.0944 142.489 88.0944 148.441V167.032C88.0944 169.432 88.2147 171.005 89.9258 171.005C92.0623 171.005 90.8414 164.937 90.8414 159.744V147.525C90.8414 143.904 91.3733 140.269 93.459 137.139C94.0694 136.223 103.971 121.521 106.112 119.995C108.249 118.469 106.824 118.02 105.196 116.943V116.938Z" fill="#FF58E2"/>
<path d="M326.508 58.9501C326.017 57.484 324.574 50.7044 323.451 47.3423C322.535 44.5952 323.825 45.0577 325.893 45.5109C327.964 45.9641 338.619 46.9862 341.773 47.3423C345.746 47.7955 345.436 47.6475 346.051 49.4788C347.129 52.7207 348.734 59.0934 350.024 62.3075C350.879 64.4441 349.455 64.0603 346.731 63.6903C343.304 63.2278 336.344 62.3075 329.93 61.6971C327.113 61.4289 327.113 60.7814 326.503 58.9501H326.508Z" fill="white"/>
<path d="M300.873 91.1698C300.429 92.7653 302.062 93.0335 303.163 92.8716C304.263 92.7098 304.346 91.6785 304.864 90.5824C305.382 89.4864 303.676 88.7187 302.575 88.8806C301.475 89.0425 301.317 89.5743 300.873 91.1698Z" fill="#46FFFF"/>
<path d="M308.263 56.5684C308.615 56.0967 309.281 55.9995 309.748 56.351C310.22 56.7025 310.317 57.3684 309.965 57.8355C309.614 58.3072 308.948 58.4043 308.481 58.0529C308.009 57.7014 307.912 57.0355 308.263 56.5684Z" fill="#46FFFF"/>
<path d="M304.985 60.0877C304.749 59.912 304.416 59.9628 304.24 60.1987C304.064 60.4345 304.115 60.7675 304.351 60.9432C304.587 61.119 304.92 61.0681 305.096 60.8323C305.271 60.5964 305.22 60.2634 304.985 60.0877Z" fill="#46FFFF"/>
<path d="M315.913 70.6735C315.45 71.0388 314.784 70.9602 314.419 70.4977C314.053 70.0399 314.132 69.3693 314.595 69.004C315.052 68.6386 315.723 68.7172 316.088 69.1797C316.454 69.6422 316.375 70.3081 315.913 70.6735Z" fill="#46FFFF"/>
<path d="M295.98 59.5466C296.226 58.9269 296.919 58.6171 297.52 58.8576C298.126 59.098 298.418 59.7964 298.168 60.4161C297.923 61.0357 297.229 61.3456 296.628 61.1051C296.022 60.8646 295.731 60.1663 295.98 59.5466Z" fill="#46FFFF"/>
<path d="M295.527 68.7681C295.227 68.6479 294.88 68.8005 294.755 69.115C294.63 69.4248 294.778 69.7763 295.079 69.8965C295.379 70.0168 295.726 69.8595 295.851 69.5497C295.976 69.2398 295.828 68.8884 295.527 68.7681Z" fill="#46FFFF"/>
<path d="M308.291 67.3021C308.425 67.6212 308.277 68.0004 307.958 68.1438C307.639 68.2872 307.274 68.1438 307.144 67.8201C307.01 67.501 307.158 67.1217 307.477 66.983C307.796 66.8396 308.162 66.983 308.296 67.3067L308.291 67.3021Z" fill="#46FFFF"/>
<path d="M301.757 70.0306C301.71 69.6838 301.946 69.3601 302.288 69.3046C302.631 69.2491 302.945 69.4896 302.991 69.8364C303.038 70.1832 302.802 70.507 302.459 70.5625C302.117 70.618 301.803 70.3775 301.757 70.0306Z" fill="#46FFFF"/>
<path d="M298.954 70.0121C298.783 70.0399 298.663 70.2017 298.686 70.3775C298.709 70.5532 298.866 70.6688 299.037 70.6411C299.208 70.6133 299.329 70.4515 299.306 70.2757C299.282 70.1 299.125 69.9844 298.954 70.0121Z" fill="#46FFFF"/>
<path d="M310.442 74.8587C310.816 75.0067 311.001 75.4229 310.858 75.7883C310.714 76.1536 310.294 76.3294 309.919 76.1814C309.544 76.0334 309.359 75.6172 309.503 75.2518C309.646 74.8865 310.067 74.7108 310.442 74.8587Z" fill="#46FFFF"/>
<path d="M303.075 74.5813C303.149 74.4009 303.056 74.1928 302.867 74.1142C302.682 74.0402 302.469 74.1281 302.395 74.3084C302.321 74.4888 302.418 74.6969 302.603 74.7709C302.793 74.8449 303.001 74.757 303.075 74.5766V74.5813Z" fill="#46FFFF"/>
<path d="M302.608 80.3898C302.413 80.4684 302.187 80.3805 302.103 80.1909C302.02 80.0013 302.103 79.7793 302.298 79.7007C302.492 79.6221 302.719 79.71 302.802 79.8996C302.89 80.0892 302.802 80.3112 302.608 80.3898Z" fill="#46FFFF"/>
<path d="M299.5 75.5201C299.708 75.4923 299.907 75.6357 299.939 75.8392C299.971 76.0427 299.828 76.2323 299.62 76.2646C299.412 76.2924 299.213 76.149 299.181 75.9455C299.148 75.7374 299.292 75.5524 299.5 75.5201Z" fill="#46FFFF"/>
<path d="M307.551 79.0394C307.722 78.9654 307.921 79.0394 307.995 79.2059C308.069 79.3724 307.986 79.5666 307.815 79.6406C307.644 79.7146 307.445 79.6406 307.375 79.4741C307.301 79.3076 307.385 79.1134 307.556 79.0394H307.551Z" fill="#46FFFF"/>
<path d="M308.902 81.7263C308.865 81.8142 308.763 81.8604 308.67 81.828C308.578 81.7957 308.536 81.6939 308.573 81.6014C308.61 81.5136 308.712 81.4673 308.804 81.4997C308.897 81.5321 308.939 81.6338 308.902 81.7263Z" fill="#46FFFF"/>
<path d="M307.075 79.8302C307.135 79.7516 307.246 79.7377 307.325 79.7932C307.403 79.8487 307.417 79.9597 307.357 80.0383C307.297 80.1169 307.186 80.1354 307.107 80.0753C307.029 80.0198 307.015 79.9088 307.075 79.8302Z" fill="#46FFFF"/>
<path d="M309.082 51.9021C309.216 52.2259 309.068 52.6005 308.749 52.7438C308.43 52.8872 308.065 52.7438 307.935 52.4201C307.801 52.101 307.949 51.7218 308.268 51.5784C308.587 51.435 308.952 51.5784 309.087 51.9021H309.082Z" fill="#46FFFF"/>
<path d="M304.18 44.0588C304.134 43.7119 304.369 43.3882 304.712 43.3327C305.054 43.2772 305.368 43.5177 305.415 43.8645C305.461 44.2114 305.225 44.5351 304.883 44.5906C304.541 44.6461 304.226 44.4056 304.18 44.0588Z" fill="#46FFFF"/>
<path d="M301.595 83.3357C301.248 82.8963 300.605 82.8223 300.166 83.1692C299.726 83.516 299.652 84.1589 299.999 84.5982C300.351 85.0375 300.989 85.1115 301.428 84.7647C301.868 84.4132 301.942 83.775 301.595 83.3357Z" fill="#46FFFF"/>
<path d="M313.485 82.3229C313.313 82.3506 313.193 82.5125 313.216 82.6882C313.239 82.864 313.397 82.9796 313.568 82.9518C313.739 82.9241 313.859 82.7622 313.836 82.5865C313.813 82.4108 313.656 82.2951 313.485 82.3229Z" fill="#46FFFF"/>
<path d="M315.968 87.3545C316.343 87.5025 316.528 87.9187 316.384 88.284C316.241 88.6494 315.82 88.8251 315.445 88.6771C315.071 88.5291 314.886 88.1129 315.029 87.7476C315.173 87.3822 315.593 87.2065 315.968 87.3545Z" fill="#46FFFF"/>
<path d="M316.255 85.0098C316.329 84.8294 316.236 84.6213 316.047 84.5427C315.862 84.4687 315.649 84.5566 315.575 84.7369C315.501 84.9173 315.598 85.1254 315.783 85.1994C315.973 85.2734 316.181 85.1855 316.255 85.0051V85.0098Z" fill="#46FFFF"/>
<path d="M317.138 92.7052C316.944 92.7838 316.717 92.6959 316.634 92.5063C316.551 92.3167 316.634 92.0947 316.828 92.0161C317.022 91.9375 317.249 92.0253 317.332 92.215C317.42 92.4046 317.332 92.6265 317.138 92.7052Z" fill="#46FFFF"/>
<path d="M313.466 90.2217C313.674 90.194 313.873 90.3373 313.905 90.5408C313.938 90.7443 313.794 90.9339 313.586 90.9663C313.378 90.994 313.179 90.8507 313.147 90.6472C313.115 90.4391 313.258 90.2541 313.466 90.2217Z" fill="#46FFFF"/>
<path d="M313.72 93.3757C313.374 92.9364 312.731 92.8624 312.291 93.2092C311.852 93.5561 311.778 94.1989 312.125 94.6382C312.476 95.0776 313.115 95.1516 313.554 94.8047C313.993 94.4533 314.067 93.8151 313.72 93.3757Z" fill="#46FFFF"/>
<path d="M305.623 90.0784C305.452 90.1061 305.331 90.268 305.355 90.4437C305.378 90.6195 305.535 90.7351 305.706 90.7073C305.877 90.6796 305.997 90.5177 305.974 90.342C305.951 90.1663 305.794 90.0506 305.623 90.0784Z" fill="#46FFFF"/>
<path d="M308.106 95.1053C308.481 95.2533 308.666 95.6695 308.522 96.0349C308.379 96.4002 307.958 96.576 307.584 96.428C307.209 96.28 307.024 95.8638 307.167 95.4984C307.311 95.1331 307.732 94.9573 308.106 95.1053Z" fill="#46FFFF"/>
<path d="M308.393 92.7653C308.467 92.5849 308.374 92.3768 308.185 92.2982C308 92.2242 307.787 92.3121 307.713 92.4924C307.639 92.6728 307.736 92.8809 307.921 92.9549C308.111 93.0289 308.319 92.941 308.393 92.7606V92.7653Z" fill="#46FFFF"/>
<path d="M309.276 100.456C309.082 100.535 308.855 100.447 308.772 100.257C308.689 100.068 308.772 99.8456 308.966 99.767C309.161 99.6883 309.387 99.7762 309.47 99.9658C309.558 100.155 309.47 100.377 309.276 100.456Z" fill="#46FFFF"/>
<path d="M306.168 95.5863C306.376 95.5585 306.575 95.7019 306.608 95.9054C306.64 96.1089 306.497 96.2985 306.289 96.3309C306.081 96.3586 305.882 96.2152 305.849 96.0118C305.817 95.8036 305.96 95.6187 306.168 95.5863Z" fill="#46FFFF"/>
<path d="M307.098 98.7079C306.751 98.2686 306.108 98.1946 305.669 98.5414C305.23 98.8883 305.156 99.5311 305.502 99.9705C305.854 100.41 306.492 100.484 306.932 100.137C307.371 99.7855 307.445 99.1473 307.098 98.7079Z" fill="#46FFFF"/>
<path d="M311.154 85.2595C310.455 84.3762 309.174 84.2282 308.296 84.9266C307.412 85.6249 307.505 86.4388 308.203 87.3221C308.902 88.2054 309.942 88.8159 310.825 88.1175C311.709 87.4192 311.857 86.1382 311.158 85.2595H311.154Z" fill="#46FFFF"/>
<path d="M320.569 87.6504C320.5 88.2378 319.968 88.6586 319.381 88.5939C318.794 88.5245 318.373 87.9927 318.437 87.4053C318.507 86.818 319.039 86.3972 319.626 86.4619C320.213 86.5267 320.634 87.0631 320.569 87.6504Z" fill="#46FFFF"/>
<path d="M318.604 77.4208C318.9 77.4532 319.164 77.245 319.201 76.9491C319.233 76.6531 319.025 76.3895 318.729 76.3525C318.433 76.3201 318.169 76.5282 318.132 76.8242C318.1 77.1202 318.308 77.3838 318.604 77.4208Z" fill="#46FFFF"/>
<path d="M306.76 79.1782C306.978 78.6278 307.602 78.3596 308.152 78.577C308.703 78.7943 308.971 79.4186 308.754 79.969C308.536 80.5193 307.912 80.7875 307.362 80.5702C306.811 80.3528 306.543 79.7285 306.76 79.1782Z" fill="#46FFFF"/>
<path d="M304.48 83.4698C304.203 83.3588 303.893 83.4929 303.782 83.7704C303.671 84.0479 303.805 84.3577 304.083 84.4687C304.36 84.5797 304.67 84.441 304.781 84.1681C304.892 83.8906 304.753 83.5808 304.48 83.4698Z" fill="#46FFFF"/>
<path d="M315.126 78.2763C314.849 78.0636 314.789 77.6613 314.992 77.3745C315.2 77.0924 315.589 77.0323 315.871 77.245C316.148 77.4578 316.208 77.8601 316.005 78.1468C315.802 78.4336 315.408 78.4891 315.126 78.2763Z" fill="#46FFFF"/>
<path d="M317.217 80.2742C317.115 80.4175 317.143 80.6164 317.281 80.7228C317.42 80.8291 317.619 80.8014 317.721 80.658C317.822 80.5146 317.795 80.3158 317.656 80.2048C317.517 80.0984 317.318 80.1262 317.217 80.2695V80.2742Z" fill="#46FFFF"/>
<path d="M318.142 70.2434C318.169 70.4376 318.354 70.5717 318.558 70.544C318.761 70.5162 318.9 70.3312 318.872 70.137C318.845 69.9428 318.655 69.8087 318.456 69.8364C318.257 69.8641 318.114 70.0491 318.146 70.2434H318.142Z" fill="#46FFFF"/>
<path d="M312.287 65.221C312.199 65.1609 312.079 65.1748 312.014 65.2626C311.949 65.3459 311.968 65.4661 312.051 65.5263C312.139 65.5864 312.259 65.5725 312.324 65.4846C312.389 65.4014 312.37 65.2811 312.287 65.221Z" fill="#46FFFF"/>
<path d="M316.264 68.9716C316.093 69.1011 315.746 69.0086 315.612 68.8467C315.478 68.6849 315.612 68.5138 315.783 68.3843C315.95 68.2548 316.195 68.2825 316.329 68.4444C316.463 68.6063 316.43 68.8467 316.264 68.9762V68.9716Z" fill="#46FFFF"/>
<path d="M317.758 68.0605C317.822 68.1438 317.947 68.1577 318.031 68.0929C318.114 68.0282 318.128 67.9079 318.063 67.8293C317.998 67.7461 317.873 67.7322 317.79 67.8016C317.707 67.8663 317.693 67.9865 317.758 68.0652V68.0605Z" fill="#46FFFF"/>
<path d="M312.629 89.4864C312.444 89.5142 312.268 89.3893 312.241 89.2089C312.213 89.0286 312.342 88.8575 312.532 88.8297C312.717 88.802 312.893 88.9268 312.92 89.1072C312.948 89.2876 312.819 89.4587 312.629 89.4864Z" fill="#46FFFF"/>
<path d="M314.174 89.4263C314.187 89.5188 314.275 89.5789 314.368 89.565C314.46 89.5512 314.525 89.4679 314.511 89.3754C314.497 89.2829 314.409 89.2228 314.317 89.2367C314.224 89.2506 314.16 89.3338 314.174 89.4263Z" fill="#46FFFF"/>
<path d="M312.014 86.5128C312.074 86.4342 312.185 86.4203 312.264 86.4758C312.342 86.5313 312.361 86.6423 312.301 86.7209C312.241 86.7995 312.13 86.818 312.051 86.7579C311.972 86.7024 311.954 86.5914 312.014 86.5128Z" fill="#46FFFF"/>
<path d="M311.454 87.1001C311.413 87.0724 311.357 87.0816 311.33 87.1186C311.297 87.1556 311.306 87.2111 311.348 87.2389C311.39 87.2666 311.445 87.2574 311.473 87.2204C311.505 87.1834 311.496 87.1279 311.454 87.1001Z" fill="#46FFFF"/>
<path d="M313.3 88.839C313.221 88.8991 313.11 88.8852 313.045 88.8112C312.98 88.7372 312.999 88.6262 313.078 88.5661C313.156 88.506 313.267 88.5199 313.332 88.5939C313.392 88.6679 313.378 88.7789 313.3 88.839Z" fill="#46FFFF"/>
<path d="M309.85 67.6443C309.739 67.797 309.526 67.8293 309.378 67.7183C309.23 67.6073 309.202 67.3992 309.313 67.2466C309.424 67.094 309.637 67.0616 309.785 67.1726C309.933 67.2836 309.961 67.4917 309.85 67.6443Z" fill="#46FFFF"/>
<path d="M322.211 92.141C321.934 91.9282 321.874 91.5259 322.077 91.2391C322.281 90.9524 322.674 90.8969 322.956 91.1097C323.233 91.3224 323.293 91.7247 323.09 92.0115C322.882 92.2936 322.493 92.3537 322.211 92.141Z" fill="#46FFFF"/>
<path d="M299.25 94.1388C299.148 94.2821 299.176 94.481 299.315 94.5874C299.453 94.6937 299.652 94.666 299.754 94.5226C299.856 94.3793 299.828 94.1758 299.689 94.0694C299.551 93.9631 299.352 93.9908 299.25 94.1342V94.1388Z" fill="#46FFFF"/>
<path d="M315.362 93.1029C315.903 93.2462 316.463 92.9271 316.611 92.3814C316.759 91.8403 316.435 91.2808 315.889 91.1328C315.348 90.9848 314.789 91.3085 314.641 91.8542C314.497 92.3953 314.816 92.9549 315.362 93.1029Z" fill="#46FFFF"/>
<path d="M309.512 103.129C310.599 103.42 311.713 102.778 312.005 101.691C312.296 100.604 311.736 100.003 310.65 99.7115C309.563 99.4201 308.365 99.5496 308.074 100.636C307.782 101.723 308.425 102.838 309.512 103.129Z" fill="#46FFFF"/>
<path d="M309.961 96.4511C310.113 97.0246 309.776 97.6119 309.202 97.7645C308.629 97.9171 308.041 97.5795 307.889 97.0061C307.736 96.4326 308.074 95.8453 308.647 95.6927C309.221 95.54 309.808 95.8776 309.961 96.4511Z" fill="#46FFFF"/>
<path d="M309.23 91.6461C309.517 91.5675 309.688 91.2761 309.609 90.9894C309.535 90.7027 309.239 90.5316 308.953 90.6102C308.666 90.6888 308.495 90.9802 308.573 91.2669C308.652 91.5536 308.943 91.7247 309.23 91.6461Z" fill="#46FFFF"/>
<path d="M1.35043 141.985C2.08575 140.764 19.8535 110.565 20.7692 108.734C21.6849 106.903 21.9901 107.513 23.211 108.429C25.3152 110.006 35.7345 115.454 40.3129 118.201C42.1442 119.301 41.9176 119.102 40.9233 120.948C35.531 130.96 30.0323 140.88 25.1719 151.142C23.1231 154.781 23.8215 159.124 21.9901 158.514C18.3228 157.293 24.1729 153.181 14.0496 149.902C9.62388 148.469 4.88364 146.915 2.57133 146.254C-1.70644 145.033 0.434758 143.507 1.35043 141.976V141.985Z" fill="white"/>
<path d="M114.362 144.427C114.852 143.451 127.367 104.822 133.781 84.8664C134.271 83.3403 133.781 82.4246 136.223 82.7298C138.665 83.0351 151.623 84.256 154.065 84.8664C156.506 85.4769 157.727 84.8664 157.117 87.9187C156.65 90.2495 146.124 125.614 140.214 145.38C137.749 153.625 139.275 152.71 133.471 150.573C132.01 150.037 119.422 146.295 116.06 146.295C112.697 146.295 113.747 145.643 114.358 144.422L114.362 144.427Z" fill="white"/>
<path d="M138.665 68.4167C139.886 65.2395 142.66 56.5638 143.682 53.1045C144.043 51.8836 143.608 50.6581 147.525 51.3148C149.357 51.62 159.133 52.5357 166.158 53.1462C168.591 53.3589 168.012 54.3671 167.684 55.588C167.286 57.0632 164.937 65.3598 163.712 69.0271C162.19 73.5962 162.796 78.1885 161.27 78.1885C159.133 78.1885 160.965 74.6368 156.382 74.2159C153.019 73.9107 143.423 72.3846 139.275 72.3846C136.528 72.3846 137.139 72.3846 138.665 68.4167Z" fill="white"/>
<path d="M181.424 38.1809C182.034 38.1809 182.002 38.0884 181.859 39.0549C181.715 40.0261 163.531 121.521 162.31 124.573C160.867 128.181 160.96 130.419 163.707 130.419C166.454 130.419 168.378 130.604 169.946 131.15C172.595 132.065 176.536 133.309 180.027 134.045C185.831 135.266 184.176 139.585 186.312 139.585C188.143 139.585 187.228 135.922 187.968 131.908C188.06 131.404 191.788 116.906 196.213 98.3102C202.313 72.6898 209.606 40.6504 209.958 39.0549C210.49 36.6547 209.958 37.1218 212.275 36.96C216.552 36.6547 223.753 36.0859 231.518 35.7391C236.378 35.5217 237.627 34.8234 237.627 40.0168C237.627 42.1534 239.763 43.0691 239.763 39.7116C239.763 31.3225 240.069 22.8179 240.069 14.3594C240.069 11.6124 240.679 11.3072 237.141 11.3072C232.253 11.3072 201.102 12.4865 193.466 12.7917L192.763 12.8194C180.434 13.3143 168.221 13.7999 155.161 14.3594C152.104 14.4889 152.104 14.623 152.104 17.6799V17.7169C152.104 21.9947 152.714 31.1561 152.714 36.3495C152.714 38.8699 152.409 39.3601 155.156 39.3601C157.903 39.3601 175.62 38.1809 181.424 38.1809Z" fill="white"/>
<path d="M167.504 138.623C166.283 137.647 166.995 136.385 167.504 135.876C168.137 134.045 169.946 135.876 169.946 137.707C169.946 139.539 169.03 139.844 167.504 138.623Z" fill="white"/>
<path d="M83.0767 145.384C83.0767 146.735 82.5912 147.826 81.2454 147.826C79.8996 147.826 78.8036 146.73 78.8036 145.384C78.8036 144.038 79.895 142.942 81.2454 142.942C82.5958 142.942 83.0767 144.034 83.0767 145.384Z" fill="#FF58E2"/>
<path d="M119.061 74.3177C118.219 74.4795 117.479 74.3084 117.317 73.4667C117.156 72.6251 117.706 71.8111 118.552 71.6493C119.394 71.4874 120.208 72.0377 120.37 72.884C120.532 73.7257 119.907 74.1604 119.066 74.3223L119.061 74.3177Z" fill="#FF58E2"/>
<path d="M126.516 40.8631C126.84 41.173 127.348 41.1591 127.658 40.84C127.968 40.5209 127.954 40.0076 127.635 39.6977C127.316 39.3879 126.803 39.4018 126.493 39.7209C126.183 40.0446 126.197 40.5533 126.516 40.8631Z" fill="#FF58E2"/>
<path d="M126.673 52.5033C127.931 52.9242 128.208 51.6293 128.125 50.7414C128.042 49.8534 127.219 49.7471 126.363 49.2892C125.508 48.8314 124.828 50.1633 124.911 51.0512C124.994 51.9391 125.415 52.0825 126.673 52.5033Z" fill="#FF58E2"/>
<path d="M99.5727 55.3243C99.7808 54.9035 100.294 54.7324 100.715 54.9405C101.136 55.1486 101.307 55.6619 101.099 56.0828C100.891 56.5036 100.377 56.6747 99.9565 56.4666C99.5357 56.2585 99.3646 55.7452 99.5727 55.3243Z" fill="#FF58E2"/>
<path d="M99.4339 60.3004C99.2859 60.4808 99.3091 60.749 99.4894 60.897C99.6698 61.045 99.938 61.0219 100.086 60.8415C100.234 60.6612 100.211 60.3929 100.031 60.2449C99.8502 60.097 99.5819 60.1201 99.4339 60.3004Z" fill="#FF58E2"/>
<path d="M111.06 48.8591C111.333 49.243 111.245 49.7748 110.861 50.043C110.478 50.3159 109.946 50.228 109.673 49.8442C109.4 49.4603 109.488 48.9285 109.872 48.6603C110.256 48.3874 110.787 48.4753 111.06 48.8591Z" fill="#FF58E2"/>
<path d="M107.735 49.1181C107.925 48.984 107.971 48.7157 107.837 48.5261C107.703 48.3365 107.435 48.2903 107.245 48.429C107.055 48.5631 107.009 48.8314 107.148 49.021C107.282 49.2106 107.55 49.2568 107.74 49.1227L107.735 49.1181Z" fill="#FF58E2"/>
<path d="M105.77 65.1748C105.284 64.9528 105.062 64.3886 105.279 63.9169C105.497 63.4405 106.066 63.2371 106.551 63.459C107.037 63.681 107.259 64.2452 107.041 64.7216C106.824 65.1979 106.255 65.4014 105.77 65.1748Z" fill="#FF58E2"/>
<path d="M111.62 67.0061C111.513 67.242 111.62 67.5241 111.865 67.6351C112.11 67.7461 112.392 67.6443 112.503 67.4085C112.61 67.1726 112.503 66.8905 112.258 66.7795C112.013 66.6685 111.731 66.7703 111.62 67.0061Z" fill="#FF58E2"/>
<path d="M105.33 57.9465C105.594 57.854 105.885 57.9881 105.987 58.2471C106.089 58.5061 105.959 58.7928 105.696 58.8853C105.432 58.9778 105.141 58.8437 105.039 58.5847C104.937 58.3257 105.067 58.039 105.33 57.9465Z" fill="#FF58E2"/>
<path d="M104.142 57.0956C104.091 56.9661 103.943 56.8967 103.814 56.9476C103.684 56.9938 103.619 57.1372 103.666 57.2667C103.716 57.3962 103.864 57.4655 103.994 57.4147C104.123 57.3684 104.188 57.2251 104.142 57.0956Z" fill="#FF58E2"/>
<path d="M108.373 64.6661C108.096 64.6892 107.842 64.4857 107.814 64.2129C107.786 63.94 107.985 63.6949 108.267 63.6718C108.549 63.6487 108.799 63.8521 108.827 64.125C108.854 64.3978 108.656 64.6429 108.373 64.6661Z" fill="#FF58E2"/>
<path d="M107.12 65.5216C107.134 65.6604 107.259 65.7621 107.398 65.7482C107.536 65.739 107.638 65.6141 107.624 65.48C107.61 65.3413 107.486 65.2395 107.347 65.2534C107.208 65.2627 107.106 65.3875 107.12 65.5216Z" fill="#FF58E2"/>
<path d="M111.107 58.6494C111.241 58.3581 111.578 58.224 111.865 58.3535C112.152 58.4829 112.272 58.8252 112.138 59.1211C112.004 59.4125 111.666 59.5466 111.379 59.4171C111.093 59.2876 110.972 58.9454 111.107 58.6494Z" fill="#FF58E2"/>
<path d="M109.381 63.4128C109.238 63.3481 109.067 63.4128 109.002 63.5608C108.938 63.7088 108.998 63.8799 109.141 63.9446C109.284 64.0094 109.455 63.9446 109.52 63.7967C109.585 63.6487 109.525 63.4776 109.381 63.4128Z" fill="#FF58E2"/>
<path d="M109.613 71.455C109.668 71.6123 109.59 71.7926 109.432 71.8527C109.275 71.9129 109.104 71.8342 109.049 71.677C108.993 71.5198 109.072 71.3394 109.229 71.2793C109.386 71.2192 109.557 71.2978 109.613 71.455Z" fill="#FF58E2"/>
<path d="M109.294 70.1139C109.372 70.0815 109.414 69.9936 109.386 69.915C109.358 69.8364 109.271 69.7948 109.192 69.8271C109.113 69.8595 109.072 69.9474 109.099 70.026C109.127 70.1046 109.215 70.1462 109.294 70.1139Z" fill="#FF58E2"/>
<path d="M111.037 62.7099C111.023 62.5434 111.148 62.3908 111.31 62.3723C111.477 62.3538 111.62 62.474 111.634 62.6451C111.648 62.8116 111.523 62.9642 111.361 62.9827C111.194 63.0012 111.051 62.881 111.037 62.7099Z" fill="#FF58E2"/>
<path d="M111 64.0973C110.917 64.1065 110.857 64.1805 110.861 64.2637C110.871 64.347 110.94 64.4071 111.023 64.3979C111.107 64.3886 111.167 64.3146 111.162 64.2314C111.153 64.1481 111.083 64.088 111 64.0973Z" fill="#FF58E2"/>
<path d="M107.509 60.7953C107.458 60.6565 107.522 60.4993 107.661 60.4484C107.795 60.3976 107.953 60.4716 108.003 60.6103C108.054 60.749 107.99 60.9063 107.851 60.9571C107.717 61.008 107.559 60.934 107.509 60.7953Z" fill="#FF58E2"/>
<path d="M90.9524 62.5665C90.8831 62.5942 90.8507 62.6682 90.8784 62.7376C90.9062 62.807 90.9802 62.844 91.0496 62.8162C91.1189 62.7885 91.1513 62.7145 91.1235 62.6451C91.0958 62.5757 91.0218 62.5387 90.9524 62.5665Z" fill="#FF58E2"/>
<path d="M109.664 65.813C109.733 65.8454 109.765 65.9332 109.733 66.0026C109.701 66.072 109.617 66.1043 109.548 66.072C109.479 66.0396 109.446 65.9517 109.479 65.8824C109.511 65.813 109.594 65.7806 109.664 65.813Z" fill="#FF58E2"/>
<path d="M109.118 65.4754C109.132 65.4384 109.118 65.3968 109.081 65.3829C109.044 65.3644 109.002 65.3829 108.988 65.4153C108.975 65.4523 108.988 65.4939 109.025 65.5078C109.062 65.5263 109.099 65.5078 109.118 65.4754Z" fill="#FF58E2"/>
<path d="M91.2622 61.7942C91.2021 61.7433 91.1928 61.6555 91.2437 61.5953C91.2946 61.5352 91.3778 61.526 91.4379 61.5768C91.4981 61.6277 91.5073 61.7156 91.4564 61.7757C91.4056 61.8358 91.3177 61.8451 91.2622 61.7942Z" fill="#FF58E2"/>
<path d="M94.6798 59.5096C94.6567 59.5374 94.6613 59.5836 94.6891 59.6114C94.7215 59.6345 94.7631 59.6345 94.7862 59.6021C94.8093 59.5697 94.8047 59.5281 94.777 59.5004C94.7492 59.4726 94.703 59.4772 94.6798 59.5096Z" fill="#FF58E2"/>
<path d="M114.788 65.3228C114.57 65.7991 114.788 66.3587 115.278 66.5853C115.764 66.8073 116.337 66.6038 116.55 66.1321C116.762 65.6604 116.55 65.0962 116.059 64.8696C115.574 64.6476 115 64.8511 114.788 65.3228Z" fill="#FF58E2"/>
<path d="M106.764 55.8885C106.658 56.1244 106.764 56.4065 107.009 56.5175C107.254 56.6285 107.536 56.5267 107.647 56.2909C107.754 56.055 107.647 55.7729 107.402 55.6619C107.157 55.551 106.875 55.6527 106.764 55.8885Z" fill="#FF58E2"/>
<path d="M119.847 60.9803C119.57 61.0034 119.315 60.7999 119.287 60.5224C119.26 60.2496 119.459 60.0045 119.741 59.9813C120.018 59.9582 120.273 60.1617 120.3 60.4346C120.328 60.7074 120.129 60.9525 119.847 60.9756V60.9803Z" fill="#FF58E2"/>
<path d="M122.15 61.0358C122.164 61.1745 122.289 61.2762 122.428 61.2624C122.566 61.2531 122.668 61.1283 122.654 60.9941C122.64 60.8554 122.515 60.7537 122.377 60.7675C122.238 60.7768 122.136 60.9016 122.15 61.0358Z" fill="#FF58E2"/>
<path d="M110.88 69.2815C110.399 69.6237 110.288 70.2942 110.63 70.7752C110.972 71.2562 111.643 71.3672 112.124 71.0249C112.605 70.6827 112.716 70.0121 112.374 69.5312C112.031 69.0502 111.361 68.9392 110.88 69.2815Z" fill="#FF58E2"/>
<path d="M105.016 59.8333C104.054 60.5178 103.827 61.8543 104.516 62.8162C105.201 63.7781 106.066 63.7273 107.028 63.0428C107.989 62.3584 108.688 61.2993 108.003 60.3374C107.319 59.3755 105.982 59.1489 105.02 59.838L105.016 59.8333Z" fill="#FF58E2"/>
<path d="M119.028 49.4603C119.644 49.5621 120.055 50.1448 119.953 50.7598C119.852 51.3749 119.269 51.7865 118.654 51.6848C118.039 51.583 117.627 51.0003 117.729 50.3852C117.831 49.7702 118.413 49.3586 119.028 49.4603Z" fill="#FF58E2"/>
<path d="M116.49 47.222C116.541 46.9168 116.332 46.6254 116.027 46.5699C115.722 46.5191 115.431 46.7272 115.38 47.0324C115.329 47.3376 115.537 47.629 115.842 47.6845C116.147 47.7353 116.439 47.5272 116.49 47.222Z" fill="#FF58E2"/>
<path d="M111.777 62.6636C111.208 62.4046 110.959 61.7341 111.217 61.1699C111.476 60.601 112.147 60.3513 112.711 60.6103C113.275 60.8693 113.53 61.5398 113.271 62.104C113.012 62.6682 112.341 62.9226 111.777 62.6636Z" fill="#FF58E2"/>
<path d="M116.161 65.2812C116.032 65.5633 116.161 65.9009 116.439 66.0303C116.721 66.1598 117.058 66.0303 117.188 65.7529C117.317 65.4708 117.188 65.1332 116.91 65.0083C116.628 64.8788 116.291 65.0083 116.166 65.2858L116.161 65.2812Z" fill="#FF58E2"/>
<path d="M111.278 53.8306C111.037 54.1127 110.612 54.1543 110.325 53.9231C110.038 53.6919 109.997 53.2756 110.237 52.9935C110.478 52.7114 110.903 52.6698 111.19 52.9011C111.476 53.1323 111.518 53.5485 111.278 53.8306Z" fill="#FF58E2"/>
<path d="M113.484 51.7495C113.627 51.8651 113.84 51.8466 113.96 51.7033C114.08 51.5645 114.062 51.3564 113.914 51.2408C113.766 51.1252 113.558 51.1437 113.437 51.287C113.317 51.4304 113.336 51.6339 113.484 51.7495Z" fill="#FF58E2"/>
<path d="M104.341 51.9669C104.549 51.9484 104.701 51.7588 104.678 51.546C104.655 51.3333 104.475 51.1761 104.267 51.1946C104.059 51.2131 103.906 51.4027 103.929 51.6154C103.952 51.8281 104.133 51.9854 104.341 51.9669Z" fill="#FF58E2"/>
<path d="M97.4222 56.1244C97.3529 56.2123 97.3667 56.3418 97.45 56.4111C97.5332 56.4851 97.6581 56.4712 97.7275 56.3834C97.7968 56.2955 97.7829 56.166 97.6997 56.0967C97.6165 56.0227 97.4916 56.0365 97.4222 56.1244Z" fill="#FF58E2"/>
<path d="M102.902 53.8722C103.032 54.0572 102.912 54.4179 102.736 54.552C102.556 54.6815 102.385 54.5289 102.255 54.3439C102.126 54.1589 102.167 53.9046 102.348 53.7751C102.528 53.6456 102.773 53.6872 102.902 53.8722Z" fill="#FF58E2"/>
<path d="M103.374 53.1924C103.462 53.1277 103.485 52.9982 103.42 52.9057C103.356 52.8132 103.231 52.7901 103.143 52.8594C103.055 52.9242 103.032 53.0537 103.097 53.1415C103.161 53.234 103.286 53.2571 103.374 53.1924Z" fill="#FF58E2"/>
<path d="M114.945 57.2019C114.963 57.4008 114.825 57.5765 114.63 57.595C114.436 57.6135 114.265 57.4702 114.247 57.2713C114.228 57.0724 114.367 56.9013 114.561 56.8828C114.755 56.8643 114.926 57.0077 114.945 57.2066V57.2019Z" fill="#FF58E2"/>
<path d="M114.963 55.5741C115.061 55.5648 115.13 55.477 115.121 55.3798C115.111 55.2827 115.024 55.2087 114.931 55.218C114.839 55.2272 114.765 55.3151 114.774 55.4122C114.783 55.5093 114.871 55.5833 114.963 55.5741Z" fill="#FF58E2"/>
<path d="M114.691 62.3168C114.612 62.252 114.598 62.1318 114.663 62.0485C114.728 61.9699 114.843 61.956 114.922 62.0254C115 62.0902 115.014 62.2104 114.95 62.2936C114.885 62.3723 114.769 62.3861 114.691 62.3168Z" fill="#FF58E2"/>
<path d="M115.273 62.9365C115.241 62.9781 115.246 63.0382 115.287 63.0706C115.329 63.1029 115.384 63.0983 115.417 63.0567C115.449 63.0151 115.444 62.955 115.403 62.9226C115.361 62.8902 115.306 62.8948 115.273 62.9365Z" fill="#FF58E2"/>
<path d="M114.298 56.462C114.358 56.5452 114.339 56.6655 114.256 56.7256C114.173 56.7857 114.057 56.7672 113.997 56.6794C113.937 56.5961 113.955 56.4759 114.039 56.4158C114.122 56.3556 114.237 56.3741 114.298 56.462Z" fill="#FF58E2"/>
<path d="M113.891 55.7082C113.932 55.6758 113.941 55.6203 113.914 55.5741C113.886 55.5325 113.826 55.5232 113.784 55.551C113.743 55.5833 113.733 55.6388 113.761 55.6851C113.789 55.7267 113.849 55.7359 113.891 55.7082Z" fill="#FF58E2"/>
<path d="M93.422 59.9628C93.7411 59.9998 93.9723 60.2819 93.9353 60.5964C93.8983 60.9063 93.607 61.1282 93.2879 61.0912C92.9688 61.0542 92.7375 60.7675 92.7745 60.4577C92.8115 60.1478 93.1029 59.9258 93.422 59.9628Z" fill="#FF58E2"/>
<path d="M89.5373 61.1375C89.6945 61.0727 89.8749 61.1421 89.9443 61.2947C90.0136 61.4473 89.9442 61.6231 89.7824 61.6878C89.6251 61.7526 89.4448 61.6832 89.3754 61.5306C89.306 61.378 89.3754 61.2022 89.5373 61.1375Z" fill="#FF58E2"/>
<path d="M89.8055 61.8266C89.8795 61.2069 90.4391 60.7675 91.0588 60.8369C91.6785 60.9109 92.1178 61.4705 92.0485 62.0902C91.9745 62.7099 91.4149 63.1492 90.7952 63.0798C90.1755 63.0058 89.7362 62.4463 89.8055 61.8266Z" fill="#FF58E2"/>
<path d="M98.0605 58.6541C97.7183 58.5107 97.5518 58.1176 97.6813 57.7754C97.8154 57.4285 98.1946 57.2667 98.5368 57.4054C98.8791 57.5488 99.0456 57.9419 98.9161 58.2841C98.782 58.6309 98.4027 58.7928 98.0605 58.6541Z" fill="#FF58E2"/>
<path d="M100.72 60.1201C100.655 60.2912 100.738 60.49 100.909 60.5594C101.08 60.6288 101.27 60.5455 101.339 60.3744C101.409 60.2033 101.321 60.0045 101.15 59.9351C100.979 59.8657 100.789 59.949 100.72 60.1201Z" fill="#FF58E2"/>
<path d="M95.9748 63.177C95.7944 63.2556 95.5817 63.177 95.5077 62.9966C95.4337 62.8162 95.517 62.6128 95.702 62.5341C95.8869 62.4555 96.095 62.5341 96.169 62.7145C96.243 62.8949 96.1598 63.0983 95.9794 63.177H95.9748Z" fill="#FF58E2"/>
<path d="M97.5286 62.7006C97.5656 62.7885 97.6719 62.8301 97.7644 62.7885C97.8569 62.7469 97.8986 62.6451 97.8616 62.5573C97.8246 62.4694 97.7182 62.4278 97.6257 62.4694C97.5332 62.511 97.4916 62.6128 97.5286 62.7006Z" fill="#FF58E2"/>
<path d="M91.0264 64.495C91.068 64.3979 91.1744 64.3516 91.2715 64.3886C91.3686 64.4256 91.4149 64.532 91.3733 64.6291C91.3317 64.7262 91.2253 64.7724 91.1282 64.7354C91.0311 64.6984 90.9848 64.5921 91.0264 64.495Z" fill="#FF58E2"/>
<path d="M96.4834 62.3353C96.4187 62.4185 96.3031 62.437 96.2198 62.3769C96.1366 62.3168 96.1227 62.2012 96.1828 62.1179C96.2476 62.0347 96.3632 62.0162 96.4464 62.0763C96.5297 62.1364 96.5436 62.252 96.4834 62.3353Z" fill="#FF58E2"/>
<path d="M97.0708 61.7156C97.1124 61.7479 97.1725 61.7387 97.2049 61.6971C97.2373 61.6554 97.228 61.5999 97.1864 61.5676C97.1448 61.5398 97.0847 61.5444 97.0523 61.5861C97.0199 61.6277 97.0292 61.6832 97.0708 61.7156Z" fill="#FF58E2"/>
<path d="M104.267 55.588C104.179 55.7637 103.966 55.8377 103.795 55.7544C103.624 55.6666 103.555 55.4538 103.642 55.2781C103.73 55.0977 103.943 55.0237 104.114 55.1116C104.285 55.1995 104.355 55.4122 104.267 55.588Z" fill="#FF58E2"/>
<path d="M99.9057 57.2436C99.9935 57.2852 100.1 57.2482 100.142 57.1603C100.188 57.0725 100.151 56.9661 100.063 56.9199C99.975 56.8782 99.8687 56.9152 99.827 57.0031C99.7808 57.091 99.8178 57.1973 99.9057 57.2436Z" fill="#FF58E2"/>
<path d="M97.9448 61.3826C97.8431 61.3918 97.7506 61.3132 97.7367 61.2115C97.7275 61.1097 97.8015 61.0173 97.9032 61.008C98.005 60.9988 98.0975 61.0774 98.1113 61.1791C98.1206 61.2809 98.0466 61.3733 97.9448 61.378V61.3826Z" fill="#FF58E2"/>
<path d="M98.7958 61.4057C98.8004 61.4566 98.8467 61.4936 98.8975 61.489C98.9484 61.489 98.9854 61.4381 98.9808 61.3872C98.9762 61.3364 98.9299 61.2994 98.879 61.304C98.8282 61.304 98.7912 61.3549 98.7958 61.4057Z" fill="#FF58E2"/>
<path d="M98.8744 57.6459C98.8791 57.7476 98.8004 57.8401 98.6987 57.8494C98.597 57.8586 98.5091 57.78 98.5045 57.6736C98.4998 57.5719 98.5785 57.4794 98.6802 57.4702C98.7819 57.4609 98.8698 57.5395 98.8744 57.6459Z" fill="#FF58E2"/>
<path d="M98.9207 56.7904C98.9716 56.7904 99.0132 56.7395 99.0086 56.6886C99.0086 56.6378 98.9623 56.5961 98.9115 56.6008C98.8606 56.6008 98.819 56.6516 98.8236 56.7025C98.8236 56.7534 98.8698 56.795 98.9207 56.7904Z" fill="#FF58E2"/>
<path d="M122.936 57.8818C122.696 58.1639 122.27 58.2055 121.984 57.9742C121.697 57.743 121.655 57.3268 121.896 57.0447C122.136 56.7626 122.562 56.721 122.848 56.9522C123.135 57.1834 123.177 57.5997 122.936 57.8818Z" fill="#FF58E2"/>
<path d="M124.046 47.1989C124.523 46.6994 124.495 45.8994 123.981 45.4091C123.468 44.9189 122.668 44.9236 122.187 45.423C121.711 45.9225 121.739 46.7225 122.252 47.2127C122.765 47.703 123.565 47.6983 124.046 47.1989Z" fill="#FF58E2"/>
<path d="M117.174 39.6099C117.142 39.2677 116.827 39.0133 116.476 39.0503C116.124 39.0873 115.861 39.3925 115.898 39.7347C115.935 40.077 116.244 40.3313 116.596 40.2943C116.947 40.2573 117.211 39.9567 117.174 39.6099Z" fill="#FF58E2"/>
<path d="M125.142 55.7961C125.286 55.9117 125.498 55.8932 125.619 55.7498C125.739 55.6065 125.72 55.403 125.572 55.2874C125.424 55.1717 125.216 55.1902 125.096 55.3336C124.976 55.477 124.994 55.6805 125.142 55.7961Z" fill="#FF58E2"/>
<path d="M120.504 44.9097C120.865 45.0022 121.087 45.3675 121.003 45.7236C120.92 46.0797 120.559 46.2971 120.203 46.2C119.843 46.1075 119.621 45.7421 119.704 45.386C119.787 45.0299 120.148 44.8126 120.504 44.9051V44.9097Z" fill="#FF58E2"/>
<path d="M117.655 43.4529C117.549 43.3049 117.336 43.2726 117.183 43.3789C117.031 43.4853 116.994 43.6888 117.105 43.8368C117.211 43.9848 117.424 44.0171 117.576 43.9108C117.729 43.8044 117.766 43.6009 117.655 43.4483V43.4529Z" fill="#FF58E2"/>
<path d="M346.971 131.945C346.971 132.958 346.625 133.776 345.663 133.776C344.701 133.776 343.919 132.958 343.919 131.945C343.919 130.932 344.701 130.114 345.663 130.114C346.625 130.114 346.971 130.932 346.971 131.945Z" fill="white"/>
<path d="M301.766 147.521C301.766 149.038 301.285 150.268 299.934 150.268C298.584 150.268 297.493 149.038 297.493 147.521C297.493 146.004 298.589 144.774 299.934 144.774C301.28 144.774 301.766 146.004 301.766 147.521Z" fill="#46FFFF"/>
<path d="M276.502 23.0769C277.403 23.5393 277.972 24.2191 277.533 25.0793C277.094 25.9349 276.007 26.2586 275.105 25.7961C274.203 25.3337 273.833 24.2654 274.272 23.4052C274.712 22.5496 275.6 22.6144 276.502 23.0769Z" fill="white"/>
<path d="M341.482 122.354C341.024 121.119 333.976 90.4668 330.79 74.7061C330.17 71.6354 330.48 71.7048 333.528 72.0793C336.575 72.4586 346.662 73.3002 350.033 73.7858C353.057 74.2205 352.475 73.18 353.696 76.7918C354.523 79.2475 361.4 106.519 365.109 122.002C365.858 125.133 366.224 124.49 367.75 125.711C369.276 126.932 368.989 127.825 366.224 127.542C362.26 127.14 349.117 125.152 345.149 124.795C342.106 124.523 342.06 123.894 341.487 122.354H341.482Z" fill="white"/>
<path d="M103.795 69.2583C102.611 69.374 102.782 71.2146 103.971 71.0989C105.159 70.9833 104.984 69.1427 103.795 69.2583Z" fill="#FF58E2"/>
<path d="M101.765 66.4142C101.705 66.2616 101.612 66.1367 101.487 66.0303C101.423 65.9887 101.353 65.9471 101.288 65.9055C101.136 65.8361 100.979 65.8084 100.812 65.8222L100.724 65.8315C100.595 65.8407 100.479 65.8777 100.377 65.9471C100.266 65.9933 100.174 66.0673 100.1 66.1644C100.017 66.2569 99.9658 66.3633 99.9381 66.4789C99.8919 66.5945 99.878 66.7148 99.8919 66.8396C99.9103 66.9183 99.9288 67.0015 99.9473 67.0801C100.007 67.2327 100.1 67.3576 100.225 67.464C100.29 67.5056 100.359 67.5472 100.424 67.5888C100.576 67.6582 100.734 67.6859 100.9 67.6721L100.988 67.6628C101.117 67.6536 101.233 67.6166 101.335 67.5518C101.446 67.5056 101.538 67.4316 101.612 67.3345C101.695 67.242 101.746 67.1356 101.774 67.02C101.82 66.9044 101.834 66.7841 101.82 66.6593C101.802 66.5807 101.783 66.4974 101.765 66.4188V66.4142Z" fill="#FF58E2"/>
<path d="M107.768 69.2583C106.584 69.374 106.755 71.2146 107.943 71.0989C109.127 70.9833 108.956 69.1427 107.768 69.2583Z" fill="#FF58E2"/>
<path d="M89.9489 67.538C88.765 67.6536 88.9361 69.4942 90.1246 69.3786C91.3085 69.263 91.1374 67.4224 89.9489 67.538Z" fill="#FF58E2"/>
<path d="M104.086 66.7518C102.902 66.8674 103.074 68.708 104.262 68.5924C105.446 68.4768 105.275 66.6362 104.086 66.7518Z" fill="#FF58E2"/>
<path d="M108.646 70.803C108.586 70.6504 108.494 70.5255 108.369 70.4191C108.359 70.4099 108.346 70.4052 108.336 70.396C108.406 70.2434 108.433 70.0861 108.42 69.9197C108.401 69.841 108.383 69.7578 108.364 69.6792C108.304 69.5266 108.211 69.4017 108.087 69.2953L107.989 69.2167C107.897 69.1335 107.791 69.0826 107.675 69.0549C107.559 69.0086 107.439 68.9947 107.314 69.0086C107.185 69.0179 107.069 69.0549 106.967 69.1242C106.856 69.1705 106.764 69.2445 106.69 69.3416C106.648 69.4063 106.607 69.4757 106.565 69.5404C106.496 69.6931 106.468 69.8503 106.482 70.0168C106.5 70.0954 106.519 70.1786 106.537 70.2573C106.597 70.4099 106.69 70.5347 106.815 70.6411L106.884 70.6966C106.856 70.7475 106.838 70.803 106.824 70.8631C106.778 70.9787 106.764 71.0989 106.778 71.2238L106.833 71.4643C106.893 71.6169 106.986 71.7418 107.111 71.8481C107.176 71.8898 107.245 71.9314 107.31 71.973C107.462 72.0424 107.62 72.0701 107.786 72.0562L107.874 72.047C108.003 72.0377 108.119 72.0007 108.221 71.936C108.332 71.8898 108.424 71.8158 108.498 71.7186C108.581 71.6261 108.632 71.5198 108.66 71.4042C108.706 71.2885 108.72 71.1683 108.706 71.0434L108.651 70.803H108.646Z" fill="#FF58E2"/>
<path d="M88.839 67.9403C88.543 67.9681 88.5847 68.4305 88.8853 68.4028C89.1859 68.375 89.1396 67.9126 88.839 67.9403Z" fill="#FF58E2"/>
<path d="M101.538 71.5845C101.538 71.5845 101.51 71.5938 101.492 71.5984C101.52 71.2099 101.256 70.7937 100.757 70.84C100.479 70.8677 100.303 71.0157 100.216 71.2099C100.197 71.1036 100.114 71.0111 99.9751 71.0249C99.6791 71.0527 99.7208 71.5152 100.021 71.4874C100.081 71.4828 100.128 71.455 100.16 71.418C100.109 71.8204 100.368 72.2736 100.886 72.2227C101.113 72.1996 101.275 72.0932 101.372 71.9452C101.413 72.01 101.478 72.0562 101.575 72.047C101.871 72.0192 101.83 71.5568 101.529 71.5845H101.538Z" fill="#FF58E2"/>
<path d="M101.649 69.0086C101.353 69.0363 101.395 69.4988 101.695 69.471C101.996 69.4433 101.95 68.9808 101.649 69.0086Z" fill="#FF58E2"/>
<path d="M90.7027 68.0235C90.4067 68.0513 90.4483 68.5137 90.7489 68.486C91.0495 68.4583 91.0033 67.9958 90.7027 68.0235Z" fill="#FF58E2"/>
<path d="M90.7212 63.5978C90.5547 63.6116 90.4992 63.7643 90.5316 63.8891C90.2818 63.9539 90.3327 64.3655 90.6148 64.3377C90.7813 64.3238 90.8368 64.1712 90.8044 64.0464C91.0542 63.9816 91.0033 63.57 90.7212 63.5978Z" fill="#FF58E2"/>
<path d="M91.3641 66.0951C91.3502 66.0581 91.3271 66.0257 91.2947 65.998C91.2762 65.9887 91.2623 65.9748 91.2438 65.9656C91.2068 65.9471 91.1652 65.9425 91.1236 65.9471L91.0357 65.9563C91.0033 65.9563 90.9756 65.9656 90.9478 65.9841C90.9201 65.998 90.897 66.0165 90.8785 66.0396C90.86 66.0627 90.8461 66.0905 90.8368 66.1182C90.823 66.146 90.823 66.1783 90.8276 66.2107C90.8322 66.2292 90.8368 66.2523 90.8415 66.2708C90.8553 66.3078 90.8785 66.3402 90.9108 66.3679C90.9293 66.3772 90.9432 66.3911 90.9617 66.4003C90.9987 66.4188 91.0403 66.4234 91.0819 66.4188L91.1698 66.4096C91.2022 66.4096 91.2299 66.4003 91.2577 66.3818C91.2854 66.3679 91.3086 66.3494 91.3271 66.3263C91.3456 66.3032 91.3594 66.2754 91.3687 66.2477C91.3826 66.22 91.3826 66.1876 91.3779 66.1552C91.3733 66.1367 91.3687 66.1136 91.3641 66.0951Z" fill="#FF58E2"/>
<path d="M96.0071 60.9571C95.1192 61.0404 95.2487 62.4231 96.1412 62.3399C97.0338 62.2567 96.8997 60.8739 96.0071 60.9571Z" fill="#FF58E2"/>
<path d="M87.5626 65.073C87.4701 64.2822 86.8828 63.5469 85.8561 63.644C83.7843 63.8429 84.0895 67.0663 86.166 66.8674C86.6793 66.8165 87.0446 66.5853 87.2759 66.2662C87.8447 66.1321 87.9141 65.4106 87.5626 65.073Z" fill="#FF58E2"/>
<path d="M78.6463 70.507C76.8612 70.507 76.8566 73.2818 78.6463 73.2818C80.4361 73.2818 80.4361 70.507 78.6463 70.507Z" fill="#FF58E2"/>
<path d="M90.12 75.3998C88.9361 75.5154 89.1072 77.356 90.2957 77.2404C91.4796 77.1248 91.3085 75.2842 90.12 75.3998Z" fill="#FF58E2"/>
<path d="M100.581 68.2686C100.299 67.9079 99.8734 67.5657 99.4017 67.5287C99.0456 67.501 98.6895 67.4686 98.3334 67.4408C97.8293 67.3992 97.3576 67.4547 96.9321 67.7646C96.5714 68.0235 96.2477 68.4953 96.1922 68.9438C96.132 69.4248 96.206 69.952 96.5159 70.3451C96.798 70.7058 97.2235 71.0481 97.6952 71.085C98.0513 71.1128 98.4074 71.1452 98.7635 71.1729C99.2675 71.2145 99.7392 71.159 100.165 70.8492C100.525 70.5902 100.849 70.1185 100.905 69.6699C100.965 69.1889 100.891 68.6617 100.581 68.2686Z" fill="#FF58E2"/>
<path d="M91.3733 71.3024C90.4854 71.3857 90.6149 72.7684 91.5074 72.6852C92.4 72.6019 92.2659 71.2192 91.3733 71.3024Z" fill="#FF58E2"/>
<path d="M89.8147 64.2822C88.9268 64.3655 89.0563 65.7482 89.9488 65.665C90.8414 65.5818 90.7073 64.199 89.8147 64.2822Z" fill="#FF58E2"/>
<path d="M89.491 61.8358C88.6031 61.9191 88.7326 63.3018 89.6251 63.2186C90.5177 63.1353 90.3835 61.7526 89.491 61.8358Z" fill="#FF58E2"/>
<path d="M87.6874 61.4797C86.7995 61.563 86.929 62.9457 87.8215 62.8625C88.7141 62.7792 88.58 61.3965 87.6874 61.4797Z" fill="#FF58E2"/>
<path d="M74.4009 79.5204C74.2853 79.303 74.1281 79.1319 73.9246 79.0024C73.7442 78.8406 73.5361 78.7296 73.2956 78.6694C73.0505 78.5908 72.8054 78.5816 72.5557 78.6371C72.3106 78.6463 72.0794 78.7203 71.8666 78.8544C71.7325 78.9423 71.6076 79.0487 71.492 79.1643C71.4227 79.2105 71.3487 79.2521 71.2885 79.3076C71.1498 79.3909 71.0388 79.5019 70.9556 79.6406C70.7937 79.821 70.6827 80.0291 70.6226 80.2696C70.5995 80.4314 70.5764 80.5979 70.5579 80.7598C70.581 80.9216 70.6041 81.0881 70.6226 81.25C70.6642 81.4303 70.7475 81.5829 70.8492 81.7309C70.9093 81.8604 70.9833 81.9807 71.0804 82.0917C71.2099 82.2951 71.3857 82.4524 71.5984 82.568C72.0285 82.7946 72.5464 82.9102 73.0228 82.753C73.4297 82.6235 73.8228 82.3738 74.0541 82.0084C74.1743 81.8882 74.3038 81.7078 74.3639 81.6107C74.3732 81.5968 74.3778 81.5876 74.387 81.5737C74.424 81.4951 74.4564 81.4165 74.4888 81.3332C74.5258 81.2592 74.5582 81.1806 74.5859 81.102C74.6368 80.917 74.6645 80.7181 74.6645 80.5285C74.6645 80.0707 74.5674 79.932 74.3917 79.5204H74.4009Z" fill="#FF58E2"/>
<path d="M107.476 72.6112C107.203 72.269 106.87 72.0655 106.44 71.9637C106.297 71.9314 106.167 71.9267 106.019 71.9221C105.871 71.9175 105.719 71.9036 105.571 71.9267C105.113 72.0054 104.817 72.1302 104.419 72.3568C104.086 72.5511 103.837 73.0274 103.772 73.3927C103.703 73.7905 103.8 74.2992 104.054 74.6183C104.308 74.942 104.669 75.2102 105.09 75.2657C105.233 75.2703 105.381 75.275 105.525 75.2842C105.691 75.2657 105.848 75.2241 105.996 75.164C106.371 75.2102 106.815 75.0807 107.106 74.8726C107.421 74.646 107.703 74.2298 107.754 73.8367C107.809 73.4159 107.744 72.9534 107.472 72.6112H107.476Z" fill="#FF58E2"/>
<path d="M98.8559 63.8799C98.5599 63.9076 98.6015 64.3701 98.9021 64.3424C99.2027 64.3146 99.1565 63.8521 98.8559 63.8799Z" fill="#FF58E2"/>
<path d="M88.1453 72.5372C87.8493 72.5649 87.8909 73.0274 88.1915 72.9996C88.4921 72.9719 88.4459 72.5094 88.1453 72.5372Z" fill="#FF58E2"/>
<path d="M89.0425 66.0257C89.0286 65.998 89.0101 65.9748 88.987 65.9563C88.9638 65.9378 88.9361 65.924 88.9083 65.9147C88.8806 65.9009 88.8482 65.9009 88.8159 65.9055C88.7974 65.9101 88.7742 65.9147 88.7557 65.9193C88.7187 65.9332 88.6864 65.9563 88.6586 65.9887L88.6262 66.0396C88.6077 66.0766 88.6031 66.1182 88.6077 66.1598L88.617 66.2477C88.617 66.2801 88.6262 66.3078 88.6447 66.3356C88.6586 66.3633 88.6771 66.3864 88.7002 66.4049C88.7234 66.4234 88.7511 66.4373 88.7789 66.4466C88.8066 66.4604 88.839 66.4604 88.8713 66.4558C88.8898 66.4512 88.913 66.4466 88.9315 66.4419C88.9685 66.4281 89.0008 66.4049 89.0286 66.3726L89.061 66.3217C89.0795 66.2847 89.0841 66.2431 89.0795 66.2015L89.0702 66.1136C89.0702 66.0812 89.061 66.0535 89.0425 66.0257Z" fill="#FF58E2"/>
<path d="M88.1314 63.3157C87.8354 63.3434 87.877 63.8059 88.1776 63.7781C88.4736 63.7504 88.432 63.2879 88.1314 63.3157Z" fill="#FF58E2"/>
<path d="M77.6751 66.2014C77.3791 66.2014 77.3791 66.6639 77.6751 66.6639C77.9711 66.6639 77.9711 66.2014 77.6751 66.2014Z" fill="#FF58E2"/>
</g>
<defs>
<radialGradient id="paint0_radial_1_458" cx="0" cy="0" r="1" gradientUnits="userSpaceOnUse" gradientTransform="translate(314.714 112.774) rotate(83.24) scale(29.9213 27.8268)">
<stop offset="0.43" stop-color="#45FDFF"/>
<stop offset="1" stop-color="#46FFFF" stop-opacity="0"/>
</radialGradient>
<radialGradient id="paint1_radial_1_458" cx="0" cy="0" r="1" gradientUnits="userSpaceOnUse" gradientTransform="translate(84.1706 76.4695) rotate(-27.11) scale(50.9448 37.1897)">
<stop offset="0.41" stop-color="#FF58E2"/>
<stop offset="1" stop-color="white" stop-opacity="0"/>
</radialGradient>
<clipPath id="clip0_1_458">
<rect width="368.67" height="171" fill="white"/>
</clipPath>
</defs>
</svg>
