<svg width="362" height="70" viewBox="0 0 362 70" fill="none" xmlns="http://www.w3.org/2000/svg">
<path d="M0 66.0432H19.511V51.4364H33.1465V39.0784H19.511V34.813H35.3584V20.375H0V66.0432Z" fill="white"/>
<path d="M66.2191 44.6213C66.2191 45.7193 66.0661 46.622 65.7652 47.3241C65.4643 48.0315 65.0314 48.5488 64.4718 48.8867C63.9122 49.2245 63.2154 49.3882 62.3919 49.3882C61.5684 49.3882 60.9032 49.2192 60.3437 48.8867C59.7841 48.5488 59.3565 48.0315 59.0662 47.3241C58.7758 46.6167 58.628 45.7193 58.628 44.6213V20.375H39.117V47.5088C39.117 51.5842 40.0514 55.1053 41.9201 58.072C43.7889 61.0388 46.5023 63.3246 50.0655 64.9241C53.6236 66.5236 57.8784 67.326 62.8248 67.326C67.7712 67.326 71.6723 66.4603 75.13 64.7235C78.5877 62.9867 81.2166 60.627 83.022 57.6392C84.8222 54.6513 85.7249 51.278 85.7249 47.5141V20.375H66.2139V44.6213H66.2191Z" fill="white"/>
<path d="M120.318 38.7088L119.985 38.6772L107.928 20.375H91.0355V66.0432H108.535V47.6408H108.804L120.925 66.0432H137.781V20.375H120.318V38.7088Z" fill="white"/>
<path d="M209.041 41.7654H183.755V47.7411H190C189.778 48.4327 189.393 49.0398 188.86 49.5518C188.321 50.0691 187.651 50.4651 186.843 50.7449C186.036 51.0246 185.154 51.1619 184.188 51.1619C182.889 51.1619 181.733 50.8188 180.714 50.1378C179.695 49.4568 178.893 48.5277 178.312 47.3505C177.732 46.1733 177.441 44.8483 177.441 43.3702C177.441 41.7126 177.763 40.3031 178.413 39.1364C179.062 37.9751 179.907 37.0988 180.947 36.5181C181.987 35.9374 183.079 35.647 184.22 35.647C185.138 35.647 185.956 35.7579 186.669 35.9849C187.387 36.2066 188.026 36.5498 188.585 37.009C189.145 37.4683 189.625 38.0437 190.032 38.7405H208.973C208.614 34.3326 207.22 30.6532 204.792 27.7075C202.363 24.7619 199.344 22.5975 195.744 21.2091C192.138 19.8208 188.379 19.1292 184.462 19.1292C179.738 19.1292 175.435 20.1164 171.55 22.0854C167.665 24.0545 164.587 26.8576 162.317 30.5001C160.042 34.1373 158.907 38.3552 158.907 43.1432C158.907 47.9312 160.042 52.1543 162.317 55.8021C164.587 59.4498 167.654 62.2741 171.518 64.2642C175.383 66.2544 179.664 67.2521 184.362 67.2521C189.509 67.2521 193.949 66.2861 197.676 64.3487C201.403 62.4113 204.264 59.5343 206.254 55.7176C208.244 51.9009 209.173 47.2502 209.041 41.7654V41.7654Z" fill="white"/>
<path d="M220.322 20.375L207.157 66.0432H226.699L227.57 61.8095H237.943L238.82 66.0432H258.262L245.133 20.375H220.317H220.322ZM230.178 49.2192L232.311 38.8778L232.58 36.8612H232.881L233.182 38.8778L235.33 49.2192H230.173H230.178Z" fill="white"/>
<path d="M289.735 41.0263L289.635 40.9946L278.723 20.375H260.991V66.0432H278.486V45.8301H278.686L286.177 61.6142H293.161L300.752 45.8618H300.953V66.0432H318.379V20.375H300.752L289.735 41.0263Z" fill="white"/>
<path d="M343.633 52.3127V48.4485H356.329V37.7692H343.633V34.1109H359.28V20.375H324.122V66.0432H359.586V52.3127H343.633Z" fill="white"/>
<path d="M209.041 41.7654H183.755V47.7411H190C189.778 48.4327 189.393 49.0398 188.86 49.5518C188.321 50.0691 187.651 50.4651 186.843 50.7449C186.036 51.0246 185.154 51.1619 184.188 51.1619C182.889 51.1619 181.733 50.8188 180.714 50.1378C179.695 49.4568 178.893 48.5277 178.312 47.3505C177.732 46.1733 177.441 44.8483 177.441 43.3702C177.441 41.7126 177.763 40.3031 178.413 39.1364C179.062 37.9751 179.907 37.0988 180.947 36.5181C181.987 35.9374 183.079 35.647 184.22 35.647C185.138 35.647 185.956 35.7579 186.669 35.9849C187.387 36.2066 188.026 36.5498 188.585 37.009C189.145 37.4683 189.625 38.0437 190.032 38.7405H208.973C208.614 34.3326 207.22 30.6532 204.792 27.7075C202.363 24.7619 199.344 22.5975 195.744 21.2091C192.138 19.8208 188.379 19.1292 184.462 19.1292C179.738 19.1292 175.435 20.1164 171.55 22.0854C167.665 24.0545 164.587 26.8576 162.317 30.5001C160.042 34.1373 158.907 38.3552 158.907 43.1432C158.907 47.9312 160.042 52.1543 162.317 55.8021C164.587 59.4498 167.654 62.2741 171.518 64.2642C175.383 66.2544 179.664 67.2521 184.362 67.2521C189.509 67.2521 193.949 66.2861 197.676 64.3487C201.403 62.4113 204.264 59.5343 206.254 55.7176C208.244 51.9009 209.173 47.2502 209.041 41.7654Z" fill="url(#paint0_radial_1_457)"/>
<path d="M220.322 20.375L207.157 66.0432H226.699L227.57 61.8095H237.944L238.82 66.0432H258.262L245.133 20.375H220.317H220.322ZM230.178 49.2192L232.311 38.8778L232.58 36.8612H232.881L233.182 38.8778L235.33 49.2192H230.173H230.178Z" fill="url(#paint1_radial_1_457)"/>
<path d="M289.735 41.0263L289.635 40.9946L278.723 20.375H260.991V66.0485H278.486V45.8301H278.686L286.177 61.6142H293.161L300.752 45.8618H300.953V66.0485H318.379V20.375H300.752L289.735 41.0263Z" fill="url(#paint2_radial_1_457)"/>
<path d="M343.633 52.3127V48.4485H356.329V37.7692H343.633V34.1109H359.28V20.375H324.122V66.0485H359.586V52.3127H343.633Z" fill="url(#paint3_radial_1_457)"/>
<mask id="mask0_1_457" style="mask-type:alpha" maskUnits="userSpaceOnUse" x="283" y="0" width="79" height="70">
<path d="M336.301 67.7484C334.923 68.0123 333.709 67.7325 333.445 66.3547C333.181 64.9769 334.084 63.6466 335.462 63.3774C336.839 63.1134 338.17 64.0161 338.439 65.3939C338.703 66.7718 337.679 67.4791 336.301 67.7431V67.7484Z" fill="#FF58E2"/>
<path d="M332.336 19.0342C332.864 19.541 333.698 19.5198 334.205 18.992C334.712 18.4641 334.691 17.63 334.163 17.1232C333.635 16.6164 332.801 16.6375 332.294 17.1654C331.787 17.6933 331.809 18.5274 332.336 19.0342Z" fill="#FF58E2"/>
<path d="M332.6 38.0859C334.654 38.7722 335.118 36.6553 334.976 35.2036C334.839 33.7519 333.493 33.5777 332.094 32.8281C330.695 32.0785 329.576 34.2587 329.718 35.7104C329.855 37.1621 330.542 37.3997 332.6 38.0859Z" fill="#FF58E2"/>
<path d="M301.703 29.2754C302.046 28.5838 302.88 28.304 303.571 28.6472C304.258 28.9903 304.543 29.8244 304.2 30.5159C303.856 31.2022 303.022 31.4872 302.331 31.1441C301.645 30.801 301.36 29.9669 301.703 29.2754Z" fill="#FF58E2"/>
<path d="M304.168 44.8008C303.925 45.0964 303.967 45.5345 304.263 45.7827C304.559 46.0308 304.997 45.9833 305.245 45.6876C305.488 45.392 305.445 44.9539 305.15 44.7057C304.854 44.4629 304.416 44.4999 304.168 44.8008Z" fill="#FF58E2"/>
<path d="M323.199 26.0711C323.647 26.6993 323.499 27.565 322.871 28.0137C322.243 28.4624 321.377 28.3146 320.929 27.6864C320.48 27.0582 320.628 26.1925 321.256 25.7438C321.884 25.295 322.75 25.4429 323.199 26.0711Z" fill="#FF58E2"/>
<path d="M317.761 26.4933C318.073 26.2716 318.147 25.8335 317.925 25.522C317.703 25.2106 317.265 25.1367 316.954 25.3584C316.642 25.5801 316.568 26.0182 316.79 26.3297C317.012 26.6412 317.45 26.7151 317.761 26.4933Z" fill="#FF58E2"/>
<path d="M314.546 52.7773C313.749 52.413 313.39 51.4892 313.744 50.7132C314.098 49.9372 315.032 49.6046 315.829 49.9689C316.626 50.3331 316.985 51.2569 316.631 52.0329C316.278 52.8089 315.343 53.1415 314.546 52.7773Z" fill="#FF58E2"/>
<path d="M324.122 55.7757C323.948 56.1663 324.122 56.6256 324.524 56.8051C324.919 56.9846 325.389 56.8209 325.563 56.4303C325.743 56.0396 325.564 55.5804 325.162 55.4009C324.766 55.2214 324.297 55.3851 324.122 55.7757Z" fill="#FF58E2"/>
<path d="M313.828 40.9524C314.256 40.7993 314.736 41.021 314.905 41.4433C315.069 41.8709 314.858 42.3355 314.43 42.4886C314.003 42.6417 313.517 42.4199 313.353 41.9976C313.19 41.5753 313.401 41.1055 313.828 40.9524Z" fill="#FF58E2"/>
<path d="M309.669 39.1681C309.584 38.9569 309.347 38.8461 309.13 38.92C308.914 38.9992 308.808 39.2315 308.893 39.4426C308.977 39.6538 309.215 39.7646 309.431 39.6907C309.647 39.6115 309.753 39.3793 309.669 39.1681Z" fill="#FF58E2"/>
<path d="M318.806 51.9485C318.347 51.9854 317.941 51.6528 317.893 51.2041C317.846 50.7554 318.178 50.3595 318.632 50.3173C319.086 50.275 319.498 50.6129 319.546 51.0616C319.593 51.5103 319.26 51.9062 318.806 51.9485Z" fill="#FF58E2"/>
<path d="M316.753 53.3421C316.779 53.5691 316.98 53.7327 317.212 53.7116C317.439 53.6905 317.608 53.4952 317.582 53.2682C317.555 53.0412 317.355 52.8776 317.122 52.8934C316.895 52.9145 316.727 53.1098 316.753 53.3368V53.3421Z" fill="#FF58E2"/>
<path d="M323.278 42.0979C323.499 41.6175 324.054 41.4011 324.518 41.6123C324.988 41.8234 325.189 42.3883 324.967 42.8687C324.751 43.349 324.191 43.5655 323.726 43.3543C323.257 43.1432 323.056 42.5783 323.278 42.0979Z" fill="#FF58E2"/>
<path d="M320.453 49.895C320.221 49.7894 319.941 49.895 319.831 50.1378C319.72 50.3753 319.82 50.6604 320.058 50.766C320.29 50.8716 320.57 50.766 320.68 50.5231C320.791 50.2856 320.691 50.0005 320.453 49.895Z" fill="#FF58E2"/>
<path d="M320.828 63.0606C320.923 63.3193 320.786 63.6097 320.533 63.71C320.279 63.8103 319.994 63.6783 319.904 63.4196C319.809 63.1609 319.941 62.8706 320.2 62.7703C320.453 62.67 320.739 62.7967 320.834 63.0606H320.828Z" fill="#FF58E2"/>
<path d="M320.311 60.8646C320.438 60.8171 320.506 60.6693 320.459 60.5426C320.411 60.4159 320.274 60.3473 320.142 60.4001C320.015 60.4529 319.947 60.5954 319.994 60.7221C320.042 60.8541 320.179 60.9174 320.311 60.8646Z" fill="#FF58E2"/>
<path d="M323.167 48.7441C323.146 48.4696 323.346 48.2215 323.616 48.1898C323.885 48.1582 324.128 48.3588 324.149 48.6333C324.17 48.9078 323.969 49.1559 323.7 49.1876C323.431 49.2192 323.188 49.0186 323.167 48.7441Z" fill="#FF58E2"/>
<path d="M323.109 51.0141C322.972 51.0299 322.871 51.1513 322.882 51.2886C322.892 51.4258 323.014 51.5261 323.146 51.5103C323.283 51.4945 323.383 51.373 323.373 51.2358C323.362 51.0985 323.241 50.9982 323.109 51.0141Z" fill="#FF58E2"/>
<path d="M317.392 45.6137C317.307 45.3867 317.418 45.1281 317.64 45.0489C317.861 44.9644 318.115 45.0858 318.199 45.3128C318.284 45.5398 318.173 45.7985 317.951 45.8777C317.73 45.9621 317.476 45.8407 317.392 45.6137Z" fill="#FF58E2"/>
<path d="M320.918 53.8225C321.034 53.8753 321.087 54.0178 321.034 54.1339C320.981 54.2501 320.849 54.3029 320.733 54.2448C320.617 54.192 320.564 54.0495 320.617 53.9333C320.67 53.8172 320.802 53.7644 320.918 53.8225Z" fill="#FF58E2"/>
<path d="M320.026 53.2735C320.052 53.2154 320.026 53.1468 319.968 53.1204C319.91 53.094 319.841 53.1204 319.815 53.1784C319.788 53.2365 319.815 53.3051 319.873 53.3315C319.931 53.3579 320 53.3315 320.026 53.2735Z" fill="#FF58E2"/>
<path d="M329.301 53.0254C328.947 53.8014 329.306 54.7252 330.103 55.0894C330.901 55.4537 331.835 55.1211 332.189 54.3451C332.542 53.5691 332.183 52.6453 331.386 52.281C330.589 51.9168 329.655 52.2494 329.301 53.0254Z" fill="#FF58E2"/>
<path d="M316.172 37.5739C315.998 37.9645 316.172 38.4238 316.573 38.6033C316.969 38.788 317.439 38.6191 317.613 38.2285C317.788 37.8431 317.613 37.3786 317.212 37.1991C316.816 37.0196 316.346 37.1832 316.172 37.5739Z" fill="#FF58E2"/>
<path d="M337.584 45.9093C337.124 45.9463 336.718 45.6137 336.67 45.165C336.623 44.7163 336.955 44.3204 337.409 44.2834C337.869 44.2465 338.275 44.579 338.323 45.0277C338.37 45.4765 338.038 45.8724 337.584 45.9146V45.9093Z" fill="#FF58E2"/>
<path d="M341.353 46.0043C341.379 46.2313 341.58 46.395 341.812 46.3792C342.039 46.358 342.208 46.1627 342.182 45.9357C342.155 45.7087 341.955 45.5451 341.722 45.5662C341.495 45.5873 341.326 45.7826 341.353 46.0096V46.0043Z" fill="#FF58E2"/>
<path d="M322.903 59.4974C322.116 60.0569 321.932 61.1497 322.491 61.9415C323.051 62.7281 324.143 62.9129 324.935 62.3533C325.722 61.7937 325.907 60.701 325.347 59.9091C324.788 59.1226 323.695 58.9378 322.903 59.4974Z" fill="#FF58E2"/>
<path d="M313.306 44.0353C311.733 45.1597 311.363 47.3452 312.488 48.9183C313.612 50.4915 315.021 50.407 316.595 49.2879C318.168 48.1634 319.313 46.4319 318.189 44.8535C317.064 43.2804 314.879 42.9109 313.306 44.0353Z" fill="#FF58E2"/>
<path d="M336.248 27.0529C337.251 27.2218 337.932 28.1721 337.763 29.1803C337.594 30.1833 336.644 30.8643 335.636 30.6954C334.633 30.5265 333.952 29.5763 334.121 28.568C334.29 27.565 335.24 26.884 336.248 27.0529Z" fill="#FF58E2"/>
<path d="M332.094 23.3893C332.178 22.8878 331.84 22.4127 331.339 22.3282C330.837 22.2438 330.362 22.5816 330.278 23.0831C330.193 23.5846 330.531 24.0597 331.033 24.1442C331.534 24.2287 332.009 23.8908 332.094 23.3893Z" fill="#FF58E2"/>
<path d="M324.376 48.6702C323.447 48.2479 323.04 47.1499 323.462 46.2261C323.885 45.297 324.983 44.8905 325.907 45.3128C326.836 45.7351 327.242 46.8332 326.82 47.757C326.398 48.6861 325.3 49.0925 324.376 48.6702Z" fill="#FF58E2"/>
<path d="M331.55 52.9567C331.339 53.4213 331.545 53.9703 332.004 54.1814C332.468 54.3926 333.017 54.1867 333.229 53.7222C333.44 53.2576 333.234 52.7139 332.769 52.4975C332.305 52.2863 331.761 52.4922 331.545 52.9515L331.55 52.9567Z" fill="#FF58E2"/>
<path d="M323.557 34.2112C323.167 34.6704 322.47 34.7391 321.995 34.359C321.525 33.9789 321.456 33.3032 321.847 32.8386C322.238 32.3794 322.935 32.3107 323.41 32.6908C323.88 33.0709 323.948 33.7466 323.557 34.2112Z" fill="#FF58E2"/>
<path d="M327.168 30.801C327.406 30.991 327.754 30.9541 327.95 30.7271C328.145 30.4948 328.113 30.157 327.876 29.9669C327.638 29.7769 327.29 29.8138 327.094 30.0408C326.899 30.2678 326.931 30.6109 327.168 30.801Z" fill="#FF58E2"/>
<path d="M312.202 31.1547C312.54 31.123 312.788 30.8115 312.757 30.4631C312.725 30.1147 312.419 29.8613 312.081 29.893C311.743 29.9247 311.495 30.2361 311.527 30.5845C311.558 30.9329 311.865 31.1863 312.202 31.1547Z" fill="#FF58E2"/>
<path d="M300.879 37.9592C300.763 38.1018 300.784 38.3129 300.927 38.4291C301.064 38.5452 301.27 38.5294 301.386 38.3868C301.502 38.2443 301.481 38.0331 301.338 37.917C301.201 37.8009 300.995 37.8167 300.879 37.9592Z" fill="#FF58E2"/>
<path d="M307.641 33.8944C307.853 34.1953 307.663 34.7919 307.367 35.003C307.077 35.2142 306.792 34.9661 306.586 34.6652C306.375 34.3643 306.443 33.9472 306.733 33.7361C307.024 33.5249 307.43 33.5935 307.641 33.8944Z" fill="#FF58E2"/>
<path d="M308.412 32.7753C308.56 32.6697 308.592 32.4586 308.486 32.3108C308.381 32.1577 308.18 32.126 308.032 32.2316C307.884 32.3372 307.853 32.5483 307.958 32.6961C308.064 32.8492 308.264 32.8809 308.412 32.7753Z" fill="#FF58E2"/>
<path d="M329.56 39.7277C329.591 40.0497 329.359 40.34 329.048 40.3664C328.736 40.3928 328.451 40.1606 328.419 39.8333C328.388 39.506 328.62 39.2262 328.931 39.1945C329.243 39.1628 329.528 39.4004 329.56 39.7224V39.7277Z" fill="#FF58E2"/>
<path d="M329.597 37.0671C329.755 37.0512 329.866 36.9087 329.855 36.7451C329.845 36.5814 329.702 36.4653 329.544 36.4811C329.385 36.497 329.269 36.6395 329.285 36.8031C329.301 36.9668 329.438 37.0829 329.597 37.0671Z" fill="#FF58E2"/>
<path d="M329.148 48.1054C329.021 47.9945 329 47.7992 329.106 47.6672C329.211 47.5352 329.401 47.5194 329.528 47.625C329.655 47.7358 329.676 47.9312 329.57 48.0631C329.465 48.1951 329.275 48.211 329.148 48.1054Z" fill="#FF58E2"/>
<path d="M330.098 49.1137C330.045 49.177 330.056 49.2773 330.119 49.3301C330.183 49.3829 330.278 49.3776 330.33 49.309C330.383 49.2456 330.373 49.1453 330.309 49.0925C330.246 49.0398 330.151 49.045 330.098 49.1137Z" fill="#FF58E2"/>
<path d="M328.504 38.5135C328.599 38.6508 328.572 38.8461 328.435 38.9464C328.298 39.0467 328.113 39.015 328.013 38.8725C327.918 38.7352 327.95 38.5399 328.082 38.4396C328.219 38.3393 328.404 38.3763 328.504 38.5135Z" fill="#FF58E2"/>
<path d="M327.839 37.2835C327.907 37.236 327.923 37.1357 327.876 37.0671C327.828 36.9985 327.733 36.9826 327.665 37.0301C327.596 37.0777 327.58 37.178 327.628 37.2466C327.675 37.3152 327.77 37.331 327.839 37.2835Z" fill="#FF58E2"/>
<path d="M301.93 42.1032C301.37 41.8709 301.096 41.2269 301.312 40.6621C301.528 40.0972 302.157 39.828 302.711 40.0603C303.271 40.2925 303.545 40.9366 303.329 41.5014C303.112 42.0663 302.484 42.3355 301.93 42.1032Z" fill="#FF58E2"/>
<path d="M306.279 44.4999C306.174 44.7796 306.311 45.1017 306.591 45.2178C306.871 45.3339 307.182 45.1967 307.293 44.9169C307.404 44.6371 307.261 44.3151 306.982 44.199C306.702 44.0828 306.39 44.2201 306.279 44.4999Z" fill="#FF58E2"/>
<path d="M301.053 48.7283C301.117 48.8708 301.286 48.9395 301.433 48.8761C301.581 48.8128 301.655 48.6438 301.592 48.496C301.528 48.3482 301.359 48.2849 301.206 48.3482C301.053 48.4116 300.985 48.5805 301.048 48.7283H301.053Z" fill="#FF58E2"/>
<path d="M300.309 47.1182C300.378 47.1657 300.473 47.1552 300.525 47.0865C300.578 47.0179 300.562 46.9229 300.494 46.8754C300.425 46.8279 300.33 46.8384 300.277 46.907C300.225 46.9757 300.24 47.0707 300.309 47.1182Z" fill="#FF58E2"/>
<path d="M309.869 36.7029C309.727 36.9932 309.378 37.1146 309.093 36.9774C308.808 36.8348 308.697 36.4864 308.845 36.1961C308.988 35.9057 309.336 35.7843 309.621 35.9216C309.906 36.0641 310.017 36.4125 309.869 36.7029Z" fill="#FF58E2"/>
<path d="M304.944 39.7963C305.086 39.8649 305.261 39.8069 305.329 39.6591C305.403 39.5112 305.345 39.337 305.203 39.2684C305.06 39.1998 304.886 39.2578 304.817 39.4057C304.743 39.5535 304.801 39.7277 304.944 39.7963Z" fill="#FF58E2"/>
<path d="M301.74 46.5692C301.571 46.585 301.418 46.4583 301.402 46.2894C301.386 46.1205 301.507 45.9727 301.676 45.9621C301.845 45.9463 301.998 46.073 302.014 46.2419C302.03 46.4108 301.909 46.5586 301.745 46.5692H301.74Z" fill="#FF58E2"/>
<path d="M303.123 46.6115C303.133 46.6959 303.207 46.7593 303.292 46.7487C303.376 46.7434 303.439 46.6695 303.429 46.5851C303.418 46.5006 303.344 46.4372 303.26 46.4478C303.175 46.4531 303.117 46.527 303.123 46.6115Z" fill="#FF58E2"/>
<path d="M303.255 40.4509C303.265 40.6198 303.133 40.7676 302.97 40.7835C302.801 40.794 302.658 40.6673 302.653 40.4984C302.642 40.3295 302.774 40.1817 302.938 40.1711C303.107 40.1606 303.249 40.2873 303.255 40.4562V40.4509Z" fill="#FF58E2"/>
<path d="M303.334 39.0573C303.418 39.052 303.482 38.9781 303.476 38.8936C303.476 38.8091 303.402 38.7458 303.318 38.7511C303.234 38.7563 303.17 38.8303 303.175 38.9147C303.175 38.9992 303.249 39.0625 303.334 39.0573Z" fill="#FF58E2"/>
<path d="M342.646 40.8363C342.256 41.2955 341.553 41.3642 341.084 40.9841C340.614 40.604 340.545 39.9283 340.936 39.4637C341.326 39.0045 342.029 38.9358 342.498 39.3159C342.968 39.696 343.037 40.3717 342.646 40.8363Z" fill="#FF58E2"/>
<path d="M328.298 29.4021C329.079 28.5838 329.032 27.2746 328.198 26.467C327.358 25.6646 326.044 25.6751 325.263 26.4881C324.481 27.3063 324.529 28.6155 325.363 29.4179C326.202 30.2203 327.517 30.2097 328.298 29.3968V29.4021Z" fill="#FF58E2"/>
<path d="M333.213 10.931C333.16 10.3714 332.648 9.95967 332.067 10.0125C331.486 10.0653 331.064 10.572 331.117 11.1316C331.17 11.6964 331.682 12.1029 332.262 12.0501C332.838 11.9973 333.266 11.4958 333.213 10.931Z" fill="#FF58E2"/>
<path d="M346.257 37.4261C346.495 37.6161 346.843 37.5791 347.038 37.3521C347.234 37.1252 347.202 36.782 346.964 36.592C346.727 36.4019 346.378 36.4389 346.183 36.6659C345.988 36.8929 346.019 37.236 346.257 37.4261Z" fill="#FF58E2"/>
<path d="M338.666 19.6043C339.257 19.7574 339.621 20.3539 339.484 20.9346C339.347 21.5206 338.761 21.869 338.17 21.7159C337.578 21.5628 337.214 20.9663 337.351 20.3856C337.489 19.7996 338.075 19.4512 338.666 19.6043Z" fill="#FF58E2"/>
<path d="M333.999 17.2182C333.825 16.9754 333.477 16.9226 333.229 17.0968C332.98 17.271 332.922 17.6089 333.097 17.8517C333.271 18.0945 333.619 18.1473 333.867 17.9784C334.115 17.8042 334.174 17.4663 333.999 17.2235V17.2182Z" fill="#FF58E2"/>
<path d="M311.31 59.4604C309.373 59.6452 309.658 62.6594 311.601 62.4747C313.543 62.2899 313.253 59.2756 311.31 59.4604Z" fill="#FF58E2"/>
<path d="M307.99 54.8097C307.895 54.5615 307.742 54.3504 307.541 54.1815C307.43 54.1128 307.325 54.0442 307.214 53.9756C306.966 53.8594 306.707 53.8172 306.433 53.8436L306.29 53.8594C306.084 53.87 305.894 53.9334 305.72 54.0442C305.54 54.1234 305.387 54.2395 305.266 54.4032C305.134 54.5563 305.044 54.7252 305.002 54.9205C304.923 55.1106 304.902 55.3059 304.928 55.5118C304.96 55.6437 304.991 55.7757 305.018 55.9077C305.113 56.1558 305.266 56.3669 305.467 56.5359C305.577 56.6045 305.683 56.6731 305.794 56.7418C306.042 56.8579 306.301 56.9001 306.575 56.8737L306.718 56.8579C306.924 56.8473 307.114 56.784 307.288 56.6731C307.467 56.5939 307.62 56.4725 307.742 56.3142C307.874 56.1611 307.963 55.9921 308.006 55.7968C308.085 55.6068 308.106 55.4115 308.08 55.2056C308.048 55.0736 308.016 54.9416 307.99 54.8097Z" fill="#FF58E2"/>
<path d="M317.819 59.4604C315.882 59.6452 316.167 62.6594 318.11 62.4747C320.047 62.2899 319.762 59.2756 317.819 59.4604Z" fill="#FF58E2"/>
<path d="M311.785 55.3586C309.848 55.5434 310.133 58.5577 312.076 58.3729C314.013 58.1882 313.728 55.1739 311.785 55.3586Z" fill="#FF58E2"/>
<path d="M319.25 61.989C319.155 61.7409 319.002 61.5298 318.801 61.3608C318.785 61.3503 318.764 61.3397 318.748 61.3239C318.865 61.0758 318.907 60.8171 318.88 60.5426C318.849 60.4106 318.817 60.2787 318.791 60.1467C318.696 59.8986 318.543 59.6874 318.342 59.5185L318.184 59.3865C318.03 59.2545 317.862 59.1648 317.666 59.1226C317.476 59.0434 317.281 59.0223 317.075 59.0487C316.869 59.0592 316.679 59.1226 316.505 59.2334C316.325 59.3126 316.172 59.434 316.051 59.5924C315.982 59.7032 315.914 59.8088 315.845 59.9197C315.729 60.1678 315.687 60.4265 315.713 60.701C315.745 60.8329 315.776 60.9649 315.803 61.0969C315.898 61.345 316.051 61.5562 316.251 61.7251L316.362 61.8148C316.32 61.8993 316.283 61.9943 316.262 62.0893C316.183 62.2794 316.162 62.4747 316.188 62.6806L316.278 63.0765C316.373 63.3246 316.526 63.5358 316.727 63.7047C316.837 63.7733 316.943 63.8419 317.054 63.9106C317.302 64.0267 317.561 64.0689 317.835 64.0425L317.978 64.0267C318.184 64.0161 318.374 63.9528 318.548 63.8419C318.727 63.7628 318.88 63.6413 319.002 63.483C319.134 63.3299 319.224 63.161 319.266 62.9656C319.345 62.7756 319.366 62.5803 319.34 62.3744L319.25 61.9785V61.989Z" fill="#FF58E2"/>
<path d="M311.775 25.9232C311.68 25.6751 311.527 25.4639 311.326 25.295C311.31 25.2845 311.289 25.2739 311.273 25.2581C311.39 25.0099 311.432 24.7513 311.405 24.4768C311.374 24.3448 311.342 24.2128 311.316 24.0809C311.221 23.8327 311.067 23.6216 310.867 23.4527L310.709 23.3207C310.555 23.1887 310.386 23.099 310.191 23.0567C310.001 22.9775 309.806 22.9564 309.6 22.9828C309.394 22.9934 309.204 23.0567 309.03 23.1676C308.85 23.2468 308.697 23.3682 308.576 23.5266C308.507 23.6374 308.439 23.743 308.37 23.8539C308.254 24.102 308.212 24.3606 308.238 24.6351C308.27 24.7671 308.301 24.8991 308.328 25.0311C308.423 25.2792 308.576 25.4903 308.776 25.6593L308.887 25.749C308.845 25.8335 308.808 25.9285 308.787 26.0235C308.708 26.2135 308.687 26.4089 308.713 26.6147L308.803 27.0107C308.898 27.2588 309.051 27.4699 309.252 27.6389C309.362 27.7075 309.468 27.7761 309.579 27.8447C309.827 27.9609 310.086 28.0031 310.36 27.9767L310.503 27.9609C310.709 27.9503 310.899 27.887 311.073 27.7761C311.252 27.6969 311.405 27.5755 311.527 27.4171C311.659 27.2641 311.748 27.0951 311.791 26.8998C311.87 26.7098 311.891 26.5144 311.865 26.3086L311.775 25.9126V25.9232Z" fill="#FF58E2"/>
<path d="M307.62 63.2718C307.594 63.2718 307.573 63.2877 307.546 63.2929C307.589 62.6542 307.166 61.9732 306.343 62.0524C305.889 62.0946 305.604 62.3427 305.456 62.6595C305.424 62.4853 305.292 62.3322 305.065 62.3533C304.58 62.4008 304.654 63.1557 305.139 63.1082C305.24 63.0976 305.313 63.0554 305.366 62.9973C305.282 63.6519 305.704 64.3962 306.559 64.3171C306.934 64.2801 307.193 64.1059 307.356 63.8631C307.42 63.9686 307.531 64.0425 307.689 64.0267C308.175 63.9792 308.101 63.2243 307.615 63.2718H307.62Z" fill="#FF58E2"/>
<path d="M307.795 59.0539C307.309 59.1014 307.383 59.8563 307.868 59.8088C308.354 59.7613 308.28 59.0064 307.795 59.0539Z" fill="#FF58E2"/>
<path d="M306.047 57.8398C305.583 57.2538 304.886 56.6889 304.115 56.6256C303.534 56.5781 302.949 56.5306 302.368 56.4778C301.539 56.4092 300.768 56.5042 300.077 57.0057C299.486 57.4333 298.958 58.204 298.863 58.9378C298.762 59.7243 298.884 60.5901 299.39 61.2288C299.855 61.8148 300.552 62.3797 301.323 62.443C301.903 62.4905 302.489 62.538 303.07 62.5908C303.899 62.6594 304.669 62.5644 305.361 62.0629C305.952 61.6353 306.48 60.8646 306.575 60.1308C306.675 59.3443 306.554 58.4785 306.047 57.8398Z" fill="#FF58E2"/>
<path d="M302.843 24.3554C301.386 24.4926 301.602 26.7573 303.059 26.6148C304.516 26.4722 304.3 24.2128 302.843 24.3554Z" fill="#FF58E2"/>
<path d="M312.651 21.1827C311.194 21.32 311.411 23.5846 312.868 23.4421C314.325 23.2996 314.108 21.0402 312.651 21.1827Z" fill="#FF58E2"/>
<path d="M317.339 64.9505C316.895 64.3909 316.346 64.0583 315.644 63.8894C315.412 63.8314 315.201 63.8314 314.958 63.8208C314.71 63.8102 314.467 63.7891 314.224 63.8314C313.48 63.9581 312.989 64.1639 312.34 64.5387C311.796 64.8555 311.384 65.6368 311.279 66.2333C311.168 66.8826 311.326 67.7167 311.738 68.2393C312.155 68.7672 312.741 69.2106 313.432 69.3004C313.67 69.3109 313.908 69.3162 314.145 69.3267C314.42 69.3004 314.673 69.2317 314.921 69.1261C315.533 69.2001 316.262 68.9889 316.737 68.6458C317.254 68.271 317.714 67.5952 317.798 66.9512C317.888 66.2597 317.782 65.5048 317.339 64.9452V64.9505Z" fill="#FF58E2"/>
<path d="M303.228 50.6551C302.743 50.7026 302.817 51.4575 303.302 51.41C303.788 51.3625 303.714 50.6076 303.228 50.6551Z" fill="#FF58E2"/>
<path d="M308.576 21.7159C308.333 22.0115 308.375 22.4497 308.671 22.6978C308.966 22.9459 309.405 22.8984 309.653 22.6028C309.896 22.3071 309.853 21.869 309.558 21.6209C309.262 21.378 308.824 21.415 308.576 21.7159Z" fill="#FF58E2"/>
<path d="M318.949 29.6977C318.152 29.3334 317.793 28.4096 318.147 27.6336C318.5 26.8576 319.435 26.525 320.232 26.8893C321.029 27.2535 321.388 28.1773 321.034 28.9533C320.681 29.7293 319.746 30.0619 318.949 29.6977Z" fill="#FF58E2"/>
<path d="M328.53 32.6961C328.356 33.0867 328.53 33.546 328.931 33.7255C329.327 33.905 329.797 33.7413 329.971 33.3507C330.151 32.9601 329.971 32.5008 329.57 32.3213C329.174 32.1418 328.704 32.3055 328.53 32.6961Z" fill="#FF58E2"/>
<path d="M318.231 17.8675C318.659 17.7144 319.139 17.9362 319.308 18.3585C319.472 18.7861 319.26 19.2506 318.833 19.4037C318.405 19.5568 317.92 19.3351 317.756 18.9128C317.592 18.4904 317.803 18.0206 318.231 17.8675Z" fill="#FF58E2"/>
<path d="M323.209 28.8636C322.75 28.9006 322.343 28.568 322.296 28.1193C322.248 27.6706 322.581 27.2746 323.035 27.2324C323.489 27.1902 323.901 27.528 323.948 27.9768C323.996 28.4255 323.663 28.8214 323.209 28.8636Z" fill="#FF58E2"/>
<path d="M321.161 30.2625C321.187 30.4895 321.388 30.6532 321.62 30.632C321.847 30.6109 322.016 30.4156 321.99 30.1886C321.963 29.9616 321.763 29.798 321.53 29.8138C321.303 29.8349 321.134 30.0302 321.161 30.2572V30.2625Z" fill="#FF58E2"/>
<path d="M327.68 19.0184C327.902 18.538 328.456 18.3215 328.921 18.5327C329.391 18.7439 329.591 19.3087 329.37 19.7891C329.153 20.2695 328.594 20.4859 328.129 20.2748C327.659 20.0636 327.459 19.4988 327.68 19.0184Z" fill="#FF58E2"/>
<path d="M324.861 26.8154C324.629 26.7098 324.349 26.8154 324.239 27.0582C324.128 27.2958 324.228 27.5808 324.466 27.6864C324.698 27.792 324.978 27.6864 325.088 27.4436C325.199 27.206 325.099 26.9209 324.861 26.8154Z" fill="#FF58E2"/>
<path d="M325.236 39.9758C325.331 40.2344 325.194 40.5248 324.941 40.6251C324.687 40.7254 324.402 40.5934 324.312 40.3347C324.217 40.0761 324.349 39.7857 324.608 39.6854C324.861 39.5851 325.146 39.7118 325.241 39.9758H325.236Z" fill="#FF58E2"/>
<path d="M324.714 37.7797C324.84 37.7322 324.909 37.5844 324.861 37.4577C324.814 37.331 324.677 37.2624 324.545 37.3152C324.418 37.368 324.349 37.5105 324.397 37.6372C324.444 37.7692 324.582 37.8325 324.714 37.7797Z" fill="#FF58E2"/>
<path d="M327.57 25.6645C327.548 25.39 327.749 25.1419 328.018 25.1103C328.287 25.0786 328.53 25.2792 328.551 25.5537C328.573 25.8282 328.372 26.0763 328.103 26.108C327.833 26.1397 327.591 25.9391 327.57 25.6645Z" fill="#FF58E2"/>
<path d="M327.511 27.9345C327.374 27.9503 327.274 28.0718 327.284 28.209C327.295 28.3463 327.416 28.4466 327.548 28.4307C327.686 28.4149 327.786 28.2935 327.775 28.1562C327.765 28.019 327.643 27.9187 327.511 27.9345Z" fill="#FF58E2"/>
<path d="M321.794 22.5288C321.71 22.3019 321.821 22.0432 322.042 21.964C322.264 21.8795 322.518 22.001 322.602 22.2279C322.686 22.4549 322.576 22.7136 322.354 22.7928C322.132 22.8773 321.879 22.7558 321.794 22.5288Z" fill="#FF58E2"/>
<path d="M325.321 30.7376C325.437 30.7904 325.49 30.9329 325.437 31.0491C325.384 31.1652 325.252 31.218 325.136 31.1599C325.02 31.1071 324.967 30.9646 325.02 30.8485C325.073 30.7323 325.205 30.6795 325.321 30.7376Z" fill="#FF58E2"/>
<path d="M324.429 30.1886C324.455 30.1305 324.429 30.0619 324.371 30.0355C324.312 30.0091 324.244 30.0355 324.217 30.0936C324.191 30.1517 324.217 30.2203 324.275 30.2467C324.334 30.2731 324.402 30.2467 324.429 30.1886Z" fill="#FF58E2"/>
<path d="M333.709 29.9405C333.355 30.7165 333.714 31.6403 334.511 32.0046C335.308 32.3688 336.243 32.0363 336.597 31.2602C336.95 30.4842 336.591 29.5604 335.794 29.1962C334.997 28.8319 334.063 29.1645 333.709 29.9405Z" fill="#FF58E2"/>
<path d="M327.311 36.4178C326.524 36.9773 326.339 38.0701 326.899 38.8619C327.459 39.6485 328.551 39.8333 329.343 39.2737C330.13 38.7141 330.315 37.6214 329.755 36.8295C329.195 36.043 328.103 35.8582 327.311 36.4178Z" fill="#FF58E2"/>
<path d="M317.714 20.9557C316.141 22.0802 315.771 24.2656 316.895 25.8388C318.02 27.4119 319.429 27.3274 321.003 26.2083C322.576 25.0839 323.721 23.3524 322.597 21.774C321.472 20.2008 319.287 19.8313 317.714 20.9557Z" fill="#FF58E2"/>
<path d="M328.784 25.5854C327.855 25.163 327.448 24.065 327.87 23.1412C328.293 22.2121 329.391 21.8056 330.315 22.2279C331.244 22.6503 331.65 23.7483 331.228 24.6721C330.805 25.6012 329.707 26.0077 328.784 25.5854Z" fill="#FF58E2"/>
<path d="M333.551 25.0205C333.424 24.9097 333.403 24.7144 333.508 24.5824C333.614 24.4504 333.804 24.4346 333.931 24.5402C334.057 24.651 334.078 24.8463 333.973 24.9783C333.867 25.1103 333.677 25.1261 333.551 25.0205Z" fill="#FF58E2"/>
<path d="M334.506 26.0341C334.453 26.0974 334.464 26.1977 334.527 26.2505C334.591 26.3033 334.686 26.298 334.738 26.2294C334.791 26.166 334.781 26.0657 334.717 26.013C334.654 25.9602 334.559 25.9654 334.506 26.0341Z" fill="#FF58E2"/>
<path d="M306.332 19.0236C305.773 18.7914 305.498 18.1473 305.715 17.5825C305.931 17.0176 306.559 16.7484 307.114 16.9807C307.673 17.213 307.948 17.857 307.731 18.4218C307.515 18.9867 306.887 19.2559 306.332 19.0236Z" fill="#FF58E2"/>
<path d="M310.682 21.4203C310.577 21.7001 310.714 22.0221 310.994 22.1382C311.273 22.2543 311.585 22.1171 311.696 21.8373C311.807 21.5575 311.664 21.2355 311.384 21.1194C311.104 21.0032 310.793 21.1405 310.682 21.4203Z" fill="#FF58E2"/>
<path d="M302.917 26.4247C302.616 26.5514 302.273 26.4247 302.151 26.1291C302.03 25.8335 302.167 25.5009 302.468 25.3689C302.769 25.237 303.107 25.3689 303.234 25.6646C303.36 25.9602 303.218 26.2927 302.922 26.4247H302.917Z" fill="#FF58E2"/>
<path d="M305.461 25.6434C305.525 25.786 305.694 25.8546 305.841 25.7912C305.989 25.7279 306.063 25.559 306 25.4112C305.936 25.2634 305.767 25.2 305.614 25.2634C305.461 25.3267 305.393 25.4956 305.456 25.6434H305.461Z" fill="#FF58E2"/>
<path d="M303.746 25.0469C303.64 25.1842 303.45 25.2106 303.313 25.1155C303.176 25.0152 303.149 24.8252 303.255 24.6932C303.355 24.556 303.55 24.5296 303.688 24.6299C303.825 24.7302 303.851 24.9202 303.746 25.0522V25.0469Z" fill="#FF58E2"/>
<path d="M304.712 24.0386C304.78 24.0862 304.875 24.0756 304.928 24.007C304.981 23.9383 304.965 23.8433 304.896 23.7958C304.828 23.7483 304.733 23.7589 304.68 23.8275C304.627 23.8961 304.643 23.9911 304.712 24.0386Z" fill="#FF58E2"/>
<path d="M306.142 23.4896C305.973 23.5055 305.82 23.3788 305.804 23.2099C305.789 23.0409 305.91 22.8931 306.079 22.8826C306.248 22.8667 306.401 22.9934 306.417 23.1623C306.433 23.3313 306.311 23.4791 306.148 23.4896H306.142Z" fill="#FF58E2"/>
<path d="M307.531 23.5266C307.541 23.611 307.615 23.6744 307.7 23.6638C307.784 23.6586 307.847 23.5847 307.837 23.5002C307.826 23.4157 307.752 23.3524 307.668 23.3629C307.583 23.3682 307.525 23.4421 307.531 23.5266Z" fill="#FF58E2"/>
<path d="M307.657 17.3713C307.668 17.5403 307.536 17.6881 307.372 17.7039C307.203 17.7145 307.061 17.5878 307.056 17.4189C307.045 17.2499 307.177 17.1021 307.341 17.0916C307.51 17.081 307.652 17.2077 307.657 17.3766V17.3713Z" fill="#FF58E2"/>
<path d="M315.718 36.3755C313.781 36.5603 314.066 39.5746 316.009 39.3898C317.951 39.205 317.661 36.1908 315.718 36.3755Z" fill="#FF58E2"/>
<path d="M312.393 31.7301C312.298 31.482 312.144 31.2708 311.944 31.1019C311.833 31.0332 311.727 30.9646 311.617 30.896C311.368 30.7799 311.11 30.7376 310.835 30.764L310.693 30.7799C310.487 30.7904 310.297 30.8538 310.123 30.9646C309.943 31.0438 309.79 31.1599 309.669 31.3236C309.537 31.4767 309.447 31.6456 309.405 31.8409C309.325 32.031 309.304 32.2263 309.331 32.4322C309.362 32.5641 309.394 32.6961 309.42 32.8281C309.516 33.0762 309.669 33.2874 309.869 33.4563C309.98 33.5249 310.086 33.5935 310.196 33.6622C310.445 33.7783 310.703 33.8205 310.978 33.7941L311.12 33.7783C311.326 33.7677 311.516 33.7044 311.69 33.5935C311.87 33.5144 312.023 33.3929 312.144 33.2346C312.276 33.0815 312.366 32.9125 312.408 32.7172C312.488 32.5272 312.509 32.3319 312.482 32.126C312.451 31.994 312.419 31.862 312.393 31.7301Z" fill="#FF58E2"/>
<path d="M322.222 36.3755C320.285 36.5603 320.57 39.5746 322.512 39.3898C324.45 39.205 324.165 36.1908 322.222 36.3755Z" fill="#FF58E2"/>
<path d="M316.193 32.2738C314.256 32.4586 314.541 35.4729 316.484 35.2881C318.421 35.1033 318.136 32.089 316.193 32.2738Z" fill="#FF58E2"/>
<path d="M323.653 38.9094C323.558 38.6613 323.404 38.4502 323.204 38.2812C323.188 38.2707 323.167 38.2601 323.151 38.2443C323.267 37.9962 323.309 37.7375 323.283 37.463C323.251 37.331 323.22 37.1991 323.193 37.0671C323.098 36.819 322.945 36.6078 322.745 36.4389L322.586 36.3069C322.433 36.1749 322.264 36.0852 322.069 36.043C321.879 35.9638 321.683 35.9427 321.478 35.9691C321.272 35.9796 321.082 36.043 320.908 36.1538C320.728 36.233 320.575 36.3544 320.453 36.5128C320.385 36.6237 320.316 36.7292 320.248 36.8401C320.132 37.0882 320.089 37.3469 320.116 37.6214C320.147 37.7534 320.179 37.8853 320.205 38.0173C320.3 38.2654 320.454 38.4766 320.654 38.6455L320.765 38.7352C320.723 38.8197 320.686 38.9147 320.665 39.0097C320.585 39.1998 320.564 39.3951 320.591 39.601L320.68 39.9969C320.776 40.245 320.929 40.4562 321.129 40.6251C321.24 40.6937 321.346 40.7624 321.457 40.831C321.705 40.9471 321.963 40.9893 322.238 40.963L322.38 40.9471C322.586 40.9366 322.776 40.8732 322.95 40.7624C323.13 40.6832 323.283 40.5618 323.404 40.4034C323.536 40.2503 323.626 40.0814 323.668 39.886C323.748 39.696 323.769 39.5007 323.742 39.2948L323.653 38.8989V38.9094Z" fill="#FF58E2"/>
<path d="M312.028 40.187C312.002 40.187 311.981 40.2028 311.954 40.2081C311.997 39.5693 311.574 38.8883 310.751 38.9675C310.297 39.0097 310.012 39.2579 309.864 39.5746C309.832 39.4004 309.7 39.2473 309.473 39.2684C308.988 39.3159 309.062 40.0708 309.547 40.0233C309.647 40.0127 309.721 39.9705 309.774 39.9124C309.69 40.567 310.112 41.3114 310.967 41.2322C311.342 41.1952 311.601 41.021 311.764 40.7782C311.828 40.8838 311.939 40.9577 312.097 40.9418C312.583 40.8943 312.509 40.1394 312.023 40.187H312.028Z" fill="#FF58E2"/>
<path d="M312.203 35.9743C311.717 36.0219 311.791 36.7768 312.276 36.7292C312.762 36.6817 312.688 35.9268 312.203 35.9743Z" fill="#FF58E2"/>
<path d="M302.964 22.7928C301.507 22.9301 301.724 25.1947 303.181 25.0522C304.638 24.9149 304.421 22.6503 302.964 22.7928Z" fill="#FF58E2"/>
<path d="M301.687 16.1519C301.539 14.8533 300.573 13.655 298.894 13.8133C295.5 14.1406 296.001 19.4143 299.401 19.087C300.24 19.0078 300.837 18.6224 301.217 18.0998C302.151 17.8834 302.262 16.7009 301.687 16.1466V16.1519Z" fill="#FF58E2"/>
<path d="M310.455 34.7602C309.991 34.1742 309.294 33.6094 308.523 33.546C307.942 33.4985 307.356 33.451 306.776 33.3982C305.947 33.3296 305.176 33.4246 304.485 33.9261C303.893 34.3537 303.366 35.1244 303.27 35.8582C303.17 36.6448 303.292 37.5105 303.798 38.1493C304.263 38.7352 304.96 39.3001 305.731 39.3634C306.311 39.411 306.897 39.4585 307.478 39.5113C308.307 39.5799 309.077 39.4849 309.769 38.9834C310.36 38.5558 310.888 37.785 310.983 37.0513C311.083 36.2647 310.962 35.3989 310.455 34.7602Z" fill="#FF58E2"/>
<path d="M321.747 41.8709C321.303 41.3114 320.754 40.9788 320.052 40.8099C319.82 40.7518 319.609 40.7518 319.366 40.7412C319.118 40.7307 318.875 40.7096 318.632 40.7518C317.888 40.8785 317.397 41.0844 316.748 41.4592C316.204 41.7759 315.792 42.5572 315.687 43.1537C315.576 43.803 315.734 44.6371 316.146 45.1597C316.563 45.6876 317.149 46.131 317.84 46.2208C318.078 46.2313 318.316 46.2366 318.553 46.2472C318.828 46.2208 319.081 46.1522 319.329 46.0466C319.941 46.1205 320.67 45.9093 321.145 45.5662C321.662 45.1914 322.122 44.5157 322.206 43.8717C322.296 43.1801 322.19 42.4252 321.747 41.8657V41.8709Z" fill="#FF58E2"/>
<path d="M307.631 27.5755C307.145 27.6231 307.219 28.3779 307.705 28.3304C308.19 28.2829 308.117 27.528 307.631 27.5755Z" fill="#FF58E2"/>
<path d="M333.266 7.92198C333.023 8.2176 333.065 8.65576 333.361 8.90387C333.656 9.15198 334.094 9.10447 334.342 8.80885C334.585 8.51322 334.543 8.07507 334.247 7.82696C333.952 7.58413 333.514 7.62108 333.266 7.92198Z" fill="#FF58E2"/>
<path d="M343.644 15.8985C342.847 15.5343 342.488 14.6104 342.842 13.8344C343.195 13.0584 344.13 12.7258 344.927 13.0901C345.724 13.4543 346.083 14.3782 345.729 15.1542C345.375 15.9302 344.441 16.2627 343.644 15.8985Z" fill="#FF58E2"/>
<path d="M353.22 18.8969C353.046 19.2876 353.22 19.7469 353.621 19.9263C354.017 20.1058 354.487 19.9422 354.661 19.5515C354.841 19.1609 354.661 18.7016 354.26 18.5221C353.864 18.3427 353.394 18.5063 353.22 18.8969Z" fill="#FF58E2"/>
<path d="M342.926 4.06836C343.354 3.91528 343.834 4.13699 344.003 4.55931C344.167 4.9869 343.955 5.45145 343.528 5.60454C343.1 5.75763 342.615 5.53591 342.451 5.1136C342.287 4.69128 342.498 4.22145 342.926 4.06836Z" fill="#FF58E2"/>
<path d="M347.904 15.0644C347.445 15.1014 347.038 14.7688 346.991 14.3201C346.943 13.8714 347.276 13.4755 347.73 13.4332C348.184 13.391 348.596 13.7288 348.643 14.1776C348.691 14.6263 348.358 15.0222 347.904 15.0644Z" fill="#FF58E2"/>
<path d="M345.851 16.4633C345.877 16.6903 346.078 16.854 346.31 16.8329C346.537 16.8118 346.706 16.6164 346.679 16.3894C346.653 16.1624 346.452 15.9988 346.22 16.0146C345.993 16.0358 345.824 16.2311 345.851 16.4581V16.4633Z" fill="#FF58E2"/>
<path d="M352.375 5.21918C352.597 4.73879 353.151 4.52235 353.616 4.73351C354.086 4.94467 354.286 5.50952 354.065 5.9899C353.848 6.47029 353.289 6.68672 352.824 6.47557C352.354 6.26441 352.154 5.69956 352.375 5.21918Z" fill="#FF58E2"/>
<path d="M349.551 13.0162C349.319 12.9106 349.039 13.0162 348.928 13.259C348.817 13.4966 348.918 13.7816 349.155 13.8872C349.387 13.9928 349.667 13.8872 349.778 13.6444C349.889 13.4068 349.789 13.1218 349.551 13.0162Z" fill="#FF58E2"/>
<path d="M349.931 26.1819C350.026 26.4406 349.889 26.7309 349.636 26.8312C349.382 26.9315 349.097 26.7995 349.007 26.5409C348.912 26.2822 349.044 25.9918 349.303 25.8915C349.556 25.7912 349.841 25.9179 349.936 26.1819H349.931Z" fill="#FF58E2"/>
<path d="M349.409 23.9806C349.535 23.9331 349.604 23.7853 349.556 23.6586C349.509 23.5319 349.372 23.4632 349.24 23.516C349.113 23.5688 349.044 23.7114 349.092 23.8381C349.139 23.97 349.277 24.0334 349.409 23.9806Z" fill="#FF58E2"/>
<path d="M352.264 11.8654C352.243 11.5909 352.444 11.3428 352.713 11.3111C352.982 11.2794 353.225 11.48 353.246 11.7545C353.267 12.029 353.067 12.2771 352.798 12.3088C352.528 12.3405 352.286 12.1399 352.264 11.8654Z" fill="#FF58E2"/>
<path d="M352.206 14.1353C352.069 14.1511 351.969 14.2726 351.979 14.4098C351.99 14.5471 352.111 14.6474 352.243 14.6315C352.381 14.6157 352.481 14.4943 352.47 14.357C352.46 14.2198 352.338 14.1195 352.206 14.1353Z" fill="#FF58E2"/>
<path d="M346.489 8.73496C346.405 8.50797 346.516 8.2493 346.737 8.17012C346.959 8.08565 347.212 8.20707 347.297 8.43406C347.381 8.66106 347.271 8.91973 347.049 8.99891C346.827 9.08337 346.574 8.96196 346.489 8.73496Z" fill="#FF58E2"/>
<path d="M350.016 16.9437C350.132 16.9965 350.185 17.1391 350.132 17.2552C350.079 17.3713 349.947 17.4241 349.831 17.366C349.715 17.3133 349.662 17.1707 349.715 17.0546C349.767 16.9385 349.899 16.8857 350.016 16.9437Z" fill="#FF58E2"/>
<path d="M349.123 16.3947C349.15 16.3367 349.123 16.268 349.065 16.2416C349.007 16.2152 348.939 16.2416 348.912 16.2997C348.886 16.3578 348.912 16.4264 348.97 16.4528C349.028 16.4792 349.097 16.4528 349.123 16.3947Z" fill="#FF58E2"/>
<path d="M358.404 16.1466C358.05 16.9226 358.409 17.8464 359.206 18.2107C360.003 18.5749 360.938 18.2423 361.291 17.4663C361.645 16.6903 361.286 15.7665 360.489 15.4023C359.692 15.038 358.758 15.3706 358.404 16.1466Z" fill="#FF58E2"/>
<path d="M352 22.6186C351.214 23.1782 351.029 24.2709 351.589 25.0627C352.148 25.8493 353.241 26.0341 354.033 25.4745C354.819 24.9149 355.004 23.8222 354.445 23.0303C353.885 22.2438 352.792 22.059 352 22.6186Z" fill="#FF58E2"/>
<path d="M341.707 7.40993C340.133 8.53435 339.764 10.7198 340.888 12.293C342.013 13.8661 343.422 13.7816 344.995 12.6625C346.568 11.5381 347.714 9.80657 346.59 8.22817C345.465 6.65504 343.28 6.28551 341.707 7.40993Z" fill="#FF58E2"/>
<path d="M353.473 11.7862C352.544 11.3639 352.138 10.2659 352.56 9.34204C352.982 8.41295 354.08 8.00647 355.004 8.42879C355.933 8.8511 356.34 9.94912 355.917 10.8729C355.495 11.802 354.397 12.2085 353.473 11.7862Z" fill="#FF58E2"/>
<path d="M358.246 11.2266C358.119 11.1158 358.098 10.9204 358.203 10.7885C358.309 10.6565 358.499 10.6407 358.626 10.7462C358.752 10.8571 358.773 11.0524 358.668 11.1844C358.562 11.3164 358.372 11.3322 358.246 11.2266Z" fill="#FF58E2"/>
<path d="M359.196 12.2349C359.143 12.2983 359.153 12.3986 359.217 12.4513C359.28 12.5041 359.375 12.4989 359.428 12.4302C359.481 12.3669 359.47 12.2666 359.407 12.2138C359.344 12.161 359.249 12.1663 359.196 12.2349Z" fill="#FF58E2"/>
<path d="M331.027 5.22445C330.468 4.99218 330.193 4.34814 330.41 3.7833C330.626 3.21845 331.254 2.94922 331.809 3.1815C332.368 3.41377 332.643 4.0578 332.426 4.62265C332.21 5.1875 331.582 5.45672 331.027 5.22445Z" fill="#FF58E2"/>
<path d="M335.377 7.62111C335.272 7.90089 335.409 8.22291 335.689 8.33904C335.968 8.45518 336.28 8.31793 336.391 8.03814C336.501 7.75836 336.359 7.43634 336.079 7.32021C335.799 7.20407 335.488 7.34132 335.377 7.62111Z" fill="#FF58E2"/>
<path d="M327.612 12.6255C327.311 12.7522 326.968 12.6255 326.846 12.3299C326.725 12.0343 326.862 11.7017 327.163 11.5697C327.464 11.4378 327.802 11.5697 327.928 11.8654C328.055 12.161 327.913 12.4936 327.617 12.6255H327.612Z" fill="#FF58E2"/>
<path d="M330.151 11.8442C330.214 11.9868 330.383 12.0554 330.531 11.9921C330.679 11.9287 330.753 11.7598 330.689 11.612C330.626 11.4642 330.457 11.4008 330.304 11.4642C330.151 11.5275 330.082 11.6964 330.146 11.8442H330.151Z" fill="#FF58E2"/>
<path d="M328.441 11.253C328.335 11.3903 328.145 11.4166 328.008 11.3216C327.87 11.2213 327.844 11.0313 327.95 10.8993C328.05 10.7621 328.245 10.7357 328.382 10.836C328.52 10.9363 328.546 11.1263 328.441 11.2583V11.253Z" fill="#FF58E2"/>
<path d="M329.407 10.2395C329.475 10.287 329.57 10.2764 329.623 10.2078C329.676 10.1392 329.66 10.0441 329.591 9.99662C329.523 9.94911 329.428 9.95967 329.375 10.0283C329.322 10.0969 329.338 10.1919 329.407 10.2395Z" fill="#FF58E2"/>
<path d="M330.837 9.69045C330.668 9.70628 330.515 9.57959 330.499 9.41066C330.484 9.24174 330.605 9.09393 330.774 9.08337C330.943 9.06753 331.096 9.19423 331.112 9.36315C331.128 9.53208 331.006 9.67989 330.842 9.69045H330.837Z" fill="#FF58E2"/>
<path d="M332.226 9.73267C332.236 9.81713 332.31 9.88048 332.394 9.86992C332.479 9.86464 332.542 9.79074 332.532 9.70627C332.521 9.62181 332.447 9.55846 332.363 9.56902C332.278 9.5743 332.22 9.64821 332.226 9.73267Z" fill="#FF58E2"/>
<path d="M332.352 3.57215C332.363 3.74107 332.231 3.88888 332.067 3.90472C331.898 3.91528 331.756 3.78858 331.75 3.61966C331.74 3.45073 331.872 3.30292 332.036 3.29236C332.204 3.2818 332.347 3.4085 332.352 3.57743V3.57215Z" fill="#FF58E2"/>
<path d="M340.408 22.5816C338.471 22.7664 338.756 25.7807 340.698 25.5959C342.641 25.4112 342.351 22.3969 340.408 22.5816Z" fill="#FF58E2"/>
<path d="M337.087 17.9309C336.992 17.6828 336.839 17.4716 336.639 17.3027C336.528 17.2341 336.422 17.1655 336.311 17.0968C336.063 16.9807 335.805 16.9385 335.53 16.9649L335.388 16.9807C335.182 16.9912 334.992 17.0546 334.818 17.1655C334.638 17.2446 334.485 17.3608 334.364 17.5244C334.232 17.6775 334.142 17.8464 334.1 18.0418C334.02 18.2318 333.999 18.4271 334.026 18.633C334.057 18.765 334.089 18.8969 334.115 19.0289C334.21 19.277 334.364 19.4882 334.564 19.6571C334.675 19.7257 334.781 19.7944 334.891 19.863C335.14 19.9791 335.398 20.0214 335.673 19.995L335.815 19.9791C336.021 19.9686 336.211 19.9052 336.385 19.7944C336.565 19.7152 336.718 19.5938 336.839 19.4354C336.971 19.2823 337.061 19.1134 337.103 18.9181C337.182 18.728 337.204 18.5327 337.177 18.3268C337.146 18.1948 337.114 18.0629 337.087 17.9309Z" fill="#FF58E2"/>
<path d="M346.917 22.5816C344.979 22.7664 345.265 25.7807 347.207 25.5959C349.145 25.4112 348.86 22.3969 346.917 22.5816Z" fill="#FF58E2"/>
<path d="M340.888 18.4799C338.951 18.6647 339.236 21.6789 341.179 21.4942C343.116 21.3094 342.831 18.2951 340.888 18.4799Z" fill="#FF58E2"/>
<path d="M348.347 25.1103C348.252 24.8622 348.099 24.651 347.899 24.4821C347.883 24.4715 347.862 24.461 347.846 24.4451C347.962 24.197 348.004 23.9383 347.978 23.6638C347.946 23.5319 347.915 23.3999 347.888 23.2679C347.793 23.0198 347.64 22.8087 347.439 22.6397L347.281 22.5078C347.128 22.3758 346.959 22.286 346.764 22.2438C346.574 22.1646 346.378 22.1435 346.173 22.1699C345.967 22.1805 345.777 22.2438 345.602 22.3547C345.423 22.4338 345.27 22.5553 345.148 22.7136C345.08 22.8245 345.011 22.9301 344.943 23.0409C344.826 23.289 344.784 23.5477 344.811 23.8222C344.842 23.9542 344.874 24.0862 344.9 24.2181C344.995 24.4662 345.148 24.6774 345.349 24.8463L345.46 24.9361C345.418 25.0205 345.381 25.1156 345.36 25.2106C345.28 25.4006 345.259 25.5959 345.286 25.8018L345.375 26.1977C345.47 26.4458 345.624 26.657 345.824 26.8259C345.935 26.8946 346.041 26.9632 346.151 27.0318C346.4 27.148 346.658 27.1902 346.933 27.1638L347.075 27.1479C347.281 27.1374 347.471 27.074 347.645 26.9632C347.825 26.884 347.978 26.7626 348.099 26.6042C348.231 26.4511 348.321 26.2822 348.363 26.0869C348.442 25.8968 348.464 25.7015 348.437 25.4956L348.347 25.0997V25.1103Z" fill="#FF58E2"/>
<path d="M336.718 26.393C336.692 26.393 336.67 26.4089 336.644 26.4142C336.686 25.7754 336.264 25.0944 335.44 25.1736C334.986 25.2158 334.701 25.4639 334.554 25.7807C334.522 25.6065 334.39 25.4534 334.163 25.4745C333.677 25.522 333.751 26.2769 334.237 26.2294C334.337 26.2188 334.411 26.1766 334.464 26.1185C334.379 26.7731 334.802 27.5175 335.657 27.4383C336.032 27.4013 336.29 27.2271 336.454 26.9843C336.517 27.0899 336.628 27.1638 336.787 27.1479C337.272 27.1004 337.198 26.3455 336.713 26.393H336.718Z" fill="#FF58E2"/>
<path d="M336.892 22.1752C336.406 22.2227 336.48 22.9776 336.966 22.93C337.452 22.8825 337.378 22.1276 336.892 22.1752Z" fill="#FF58E2"/>
<path d="M327.659 8.99364C326.202 9.13089 326.419 11.3956 327.876 11.253C329.333 11.1158 329.116 8.8511 327.659 8.99364Z" fill="#FF58E2"/>
<path d="M326.376 2.3527C326.229 1.05408 325.263 -0.144243 323.584 0.0141255C320.189 0.341421 320.691 5.61509 324.091 5.2878C324.93 5.20861 325.527 4.82325 325.907 4.30063C326.841 4.0842 326.952 2.90171 326.376 2.34742V2.3527Z" fill="#FF58E2"/>
<path d="M335.15 20.961C334.686 20.375 333.989 19.8102 333.218 19.7468C332.637 19.6993 332.051 19.6518 331.471 19.599C330.642 19.5304 329.871 19.6254 329.18 20.1269C328.588 20.5545 328.06 21.3252 327.965 22.059C327.865 22.8456 327.987 23.7113 328.493 24.3501C328.958 24.9361 329.655 25.5009 330.425 25.5642C331.006 25.6118 331.592 25.6593 332.173 25.7121C333.002 25.7807 333.772 25.6857 334.464 25.1842C335.055 24.7566 335.583 23.9858 335.678 23.2521C335.778 22.4655 335.657 21.5998 335.15 20.961Z" fill="#FF58E2"/>
<path d="M346.436 28.0718C345.993 27.5122 345.444 27.1796 344.742 27.0107C344.51 26.9526 344.299 26.9526 344.056 26.9421C343.808 26.9315 343.565 26.9104 343.322 26.9526C342.578 27.0793 342.087 27.2852 341.437 27.66C340.894 27.9767 340.482 28.758 340.376 29.3546C340.265 30.0039 340.424 30.8379 340.836 31.3606C341.253 31.8885 341.839 32.3319 342.53 32.4216C342.768 32.4322 343.005 32.4375 343.243 32.448C343.517 32.4216 343.771 32.353 344.019 32.2474C344.631 32.3213 345.36 32.1102 345.835 31.767C346.352 31.3922 346.811 30.7165 346.896 30.0725C346.985 29.381 346.88 28.6261 346.436 28.0665V28.0718Z" fill="#FF58E2"/>
<path d="M332.326 13.7764C331.84 13.8239 331.914 14.5788 332.4 14.5312C332.885 14.4837 332.812 13.7288 332.326 13.7764Z" fill="#FF58E2"/>
<path d="M290.284 48.5119C290.173 48.5541 290.115 48.6808 290.158 48.7969C290.2 48.9131 290.327 48.9711 290.437 48.9289C290.548 48.8867 290.606 48.76 290.564 48.6438C290.522 48.5277 290.395 48.4696 290.284 48.5119Z" fill="#FF58E2"/>
<path d="M290.796 47.2449C290.696 47.1604 290.685 47.0126 290.765 46.9176C290.844 46.8173 290.986 46.8068 291.087 46.8912C291.182 46.9757 291.198 47.1182 291.118 47.2185C291.039 47.3188 290.897 47.3294 290.796 47.2449Z" fill="#FF58E2"/>
<path d="M296.387 43.5021C296.35 43.5496 296.355 43.6235 296.403 43.6658C296.45 43.708 296.524 43.7027 296.561 43.6499C296.603 43.6024 296.593 43.5285 296.545 43.4863C296.498 43.4441 296.424 43.4493 296.387 43.5021Z" fill="#FF58E2"/>
<path d="M294.333 44.2464C294.856 44.3098 295.236 44.7743 295.173 45.2811C295.109 45.7932 294.639 46.1574 294.112 46.0941C293.589 46.0307 293.209 45.5662 293.272 45.0594C293.336 44.5473 293.805 44.1831 294.333 44.2464Z" fill="#FF58E2"/>
<path d="M287.972 46.168C288.226 46.0624 288.526 46.1785 288.637 46.4267C288.748 46.6748 288.632 46.9651 288.373 47.0707C288.115 47.1763 287.819 47.0601 287.708 46.812C287.597 46.5639 287.713 46.2736 287.972 46.168Z" fill="#FF58E2"/>
<path d="M288.416 47.303C288.537 46.2894 289.455 45.5662 290.464 45.6876C291.477 45.809 292.201 46.7276 292.079 47.7359C291.958 48.7494 291.039 49.4726 290.031 49.3512C289.017 49.2298 288.294 48.3113 288.416 47.303Z" fill="#FF58E2"/>
<path d="M298.277 34.6335C297.717 34.4012 297.443 33.7572 297.659 33.1923C297.875 32.6275 298.504 32.3582 299.058 32.5905C299.617 32.8228 299.892 33.4668 299.676 34.0317C299.459 34.5965 298.831 34.8658 298.277 34.6335Z" fill="#FF58E2"/>
<path d="M298.509 49.5096C298.208 49.6363 297.865 49.5096 297.743 49.214C297.622 48.9183 297.759 48.5858 298.06 48.4538C298.361 48.3218 298.699 48.4538 298.826 48.7494C298.952 49.045 298.81 49.3776 298.514 49.5096H298.509Z" fill="#FF58E2"/>
<path d="M290.406 51.6687C290.469 51.5103 290.649 51.4364 290.807 51.4945C290.965 51.5525 291.039 51.732 290.976 51.8851C290.912 52.0435 290.733 52.1174 290.575 52.0593C290.416 52.0012 290.342 51.8218 290.406 51.6687Z" fill="#FF58E2"/>
<path d="M299.343 48.1318C299.237 48.269 299.047 48.2954 298.91 48.2004C298.773 48.1001 298.746 47.91 298.852 47.7781C298.952 47.6408 299.148 47.6144 299.285 47.7147C299.422 47.815 299.449 48.0051 299.343 48.137V48.1318Z" fill="#FF58E2"/>
<path d="M288.648 56.6467C286.71 56.8315 286.996 59.8458 288.938 59.661C290.876 59.4763 290.59 56.462 288.648 56.6467Z" fill="#FF58E2"/>
<path d="M286.827 57.3013C286.341 57.3488 286.415 58.1037 286.9 58.0562C287.386 58.0087 287.312 57.2538 286.827 57.3013Z" fill="#FF58E2"/>
<path d="M289.883 57.4438C289.397 57.4913 289.471 58.2462 289.957 58.1987C290.443 58.1512 290.369 57.3963 289.883 57.4438Z" fill="#FF58E2"/>
<path d="M289.915 50.1958C289.64 50.2222 289.551 50.4703 289.603 50.6762C289.197 50.7871 289.281 51.4522 289.741 51.41C290.015 51.3836 290.105 51.1355 290.052 50.9349C290.459 50.824 290.374 50.1589 289.915 50.2011V50.1958Z" fill="#FF58E2"/>
<path d="M290.96 54.287C290.934 54.2237 290.897 54.1709 290.849 54.1287C290.823 54.1128 290.796 54.0917 290.765 54.0759C290.701 54.0495 290.638 54.0389 290.569 54.0442L290.427 54.06C290.374 54.06 290.327 54.0811 290.284 54.1075C290.237 54.1287 290.2 54.1551 290.168 54.1973C290.136 54.2342 290.11 54.2765 290.099 54.324C290.078 54.3715 290.073 54.419 290.078 54.4718C290.084 54.5035 290.094 54.5351 290.099 54.5721C290.126 54.6354 290.163 54.6882 290.21 54.7305C290.237 54.7463 290.263 54.7674 290.295 54.7832C290.358 54.8096 290.422 54.8202 290.49 54.8149L290.633 54.7991C290.685 54.7991 290.733 54.7832 290.775 54.7516C290.823 54.7305 290.86 54.7041 290.891 54.6618C290.923 54.6249 290.949 54.5827 290.96 54.5351C290.981 54.4876 290.986 54.4401 290.981 54.3873C290.976 54.3557 290.965 54.324 290.96 54.287Z" fill="#FF58E2"/>
<path d="M298.562 45.8724C297.105 46.0096 297.321 48.2743 298.778 48.1317C300.235 47.9945 300.019 45.7298 298.562 45.8724Z" fill="#FF58E2"/>
<path d="M297.279 39.2315C297.131 37.9328 296.165 36.7345 294.486 36.8929C291.092 37.2202 291.593 42.4938 294.993 42.1666C295.832 42.0874 296.429 41.702 296.809 41.1794C297.743 40.963 297.854 39.7805 297.279 39.2262V39.2315Z" fill="#FF58E2"/>
<path d="M288.426 51.3202C286.969 51.4575 287.186 53.7222 288.643 53.5796C290.1 53.4371 289.883 51.1777 288.426 51.3202Z" fill="#FF58E2"/>
<path d="M287.898 47.3135C286.441 47.4508 286.658 49.7154 288.115 49.5729C289.572 49.4357 289.355 47.171 287.898 47.3135Z" fill="#FF58E2"/>
<path d="M284.947 46.7276C283.49 46.8648 283.707 49.1295 285.164 48.987C286.621 48.8444 286.404 46.585 284.947 46.7276Z" fill="#FF58E2"/>
<path d="M287.164 54.1709C287.143 54.1234 287.117 54.0864 287.075 54.0547C287.038 54.0231 286.996 53.9967 286.948 53.9861C286.9 53.965 286.853 53.9597 286.8 53.965C286.769 53.9703 286.737 53.9808 286.7 53.9861C286.637 54.0125 286.584 54.0495 286.542 54.097L286.489 54.1762C286.462 54.2395 286.452 54.3029 286.457 54.3715L286.473 54.514C286.473 54.5668 286.489 54.6143 286.52 54.6565C286.542 54.7041 286.568 54.741 286.61 54.7727C286.647 54.8044 286.689 54.8308 286.737 54.8413C286.784 54.8624 286.832 54.8677 286.885 54.8572C286.916 54.8519 286.948 54.8413 286.985 54.836C287.048 54.8096 287.101 54.7727 287.143 54.7252L287.196 54.646C287.222 54.5826 287.233 54.5193 287.228 54.4507L287.212 54.3081C287.212 54.2554 287.191 54.2078 287.164 54.1656V54.1709Z" fill="#FF58E2"/>
<path d="M285.67 49.7366C285.185 49.7841 285.259 50.539 285.744 50.4914C286.23 50.4439 286.156 49.689 285.67 49.7366Z" fill="#FF58E2"/>
</mask>
<g mask="url(#mask0_1_457)">
<path d="M289.735 40.9049L289.635 40.8732L278.723 20.2536H260.991V65.9218H278.486V45.7087H278.686L286.177 61.4928H293.161L300.752 45.7404H300.953V65.9218H318.379V20.2536H300.752L289.735 40.9049Z" fill="#FF58E2"/>
<path d="M343.633 52.1913V48.3271H356.329V37.6478H343.633V33.9895H359.28V20.2536H324.122V65.9218H359.586V52.1913H343.633Z" fill="#FF58E2"/>
</g>
<defs>
<radialGradient id="paint0_radial_1_457" cx="0" cy="0" r="1" gradientUnits="userSpaceOnUse" gradientTransform="translate(355.284 63.1557) scale(77.21 77.21)">
<stop offset="0.41" stop-color="#FF58E2"/>
<stop offset="1" stop-color="white" stop-opacity="0"/>
</radialGradient>
<radialGradient id="paint1_radial_1_457" cx="0" cy="0" r="1" gradientUnits="userSpaceOnUse" gradientTransform="translate(355.284 63.1557) scale(77.2099 77.2099)">
<stop offset="0.41" stop-color="#FF58E2"/>
<stop offset="1" stop-color="white" stop-opacity="0"/>
</radialGradient>
<radialGradient id="paint2_radial_1_457" cx="0" cy="0" r="1" gradientUnits="userSpaceOnUse" gradientTransform="translate(355.284 63.1557) scale(77.2099 77.21)">
<stop offset="0.41" stop-color="#FF58E2"/>
<stop offset="1" stop-color="white" stop-opacity="0"/>
</radialGradient>
<radialGradient id="paint3_radial_1_457" cx="0" cy="0" r="1" gradientUnits="userSpaceOnUse" gradientTransform="translate(355.284 63.1557) scale(77.2099 77.21)">
<stop offset="0.41" stop-color="#FF58E2"/>
<stop offset="1" stop-color="white" stop-opacity="0"/>
</radialGradient>
</defs>
</svg>
